<?xml version="1.0" standalone="no"?>
<!DOCTYPE svg PUBLIC "-//W3C//DTD SVG 20010904//EN"
 "http://www.w3.org/TR/2001/REC-SVG-20010904/DTD/svg10.dtd">
<svg version="1.0" xmlns="http://www.w3.org/2000/svg"
 width="1024.000000pt" height="1024.000000pt" viewBox="0 0 1024.000000 1024.000000"
 preserveAspectRatio="xMidYMid meet">
<metadata>
Created by potrace 1.11, written by Peter Selinger 2001-2013
</metadata>
<g transform="translate(0.000000,1024.000000) scale(0.100000,-0.100000)"
fill="#000000" stroke="none">
<path d="M4888 9705 c-1 -1 -30 -6 -63 -9 -119 -14 -140 -16 -165 -21 -14 -3
-50 -9 -80 -15 -82 -15 -88 -16 -175 -40 -478 -129 -843 -376 -1084 -735 -93
-138 -182 -331 -207 -447 -38 -176 -35 -72 -38 -1328 -12 -4361 -13 -4160 8
-4225 51 -164 122 -237 286 -291 50 -17 106 -19 648 -22 325 -2 593 -6 593
-10 1 -4 2 -416 3 -917 3 -1005 0 -967 67 -1068 86 -129 268 -221 439 -220 81
1 118 7 201 32 157 49 269 162 302 306 10 48 13 238 12 958 0 494 2 901 5 905
3 4 246 8 540 8 577 0 611 2 709 53 141 72 232 191 264 347 15 72 19 887 20
3874 0 1397 0 1434 -27 1560 -43 198 -111 361 -219 523 -71 107 -81 120 -177
220 -246 259 -583 430 -1014 517 -67 14 -87 17 -168 25 -32 3 -68 9 -80 12
-24 6 -594 14 -600 8z"/>
</g>
</svg>
