<?xml version="1.0" encoding="UTF-8" standalone="no"?>
<svg
   xmlns:dc="http://purl.org/dc/elements/1.1/"
   xmlns:cc="http://creativecommons.org/ns#"
   xmlns:rdf="http://www.w3.org/1999/02/22-rdf-syntax-ns#"
   xmlns:svg="http://www.w3.org/2000/svg"
   xmlns="http://www.w3.org/2000/svg"
   xmlns:sodipodi="http://sodipodi.sourceforge.net/DTD/sodipodi-0.dtd"
   xmlns:inkscape="http://www.inkscape.org/namespaces/inkscape"
   width="450"
   height="280"
   viewBox="0 0 450.00001 280"
   version="1.1"
   id="svg1874"
   inkscape:version="1.1-dev (f9311a1, 2019-12-25)"
   sodipodi:docname="carte4.svg">
  <defs
     id="defs1868">
    <clipPath
       id="clipPath8646"
       clipPathUnits="userSpaceOnUse">
      <path
         inkscape:connector-curvature="0"
         id="path8644"
         d="m 1252.8,3687.4 c 23.82,10.12 47.84,20.31 73.23,25.34 13.22,2.63 107.7,0.49 68.87,-27.74 -5.73,-4.17 -13.04,-5.36 -20.05,-6.42 -41.14,-6.25 -85.94,-11.87 -122.05,8.82 z m 13.87,-431.29 c -25.33,0.35 -47.58,15.95 -68.02,30.92 -8.43,6.17 -17.05,12.55 -22.65,21.35 -5.6,8.82 -7.58,20.75 -2.1,29.64 5.72,9.29 17.43,12.65 28.16,14.65 11.28,2.1 23.56,3.38 33.7,-1.99 5.38,-2.85 9.67,-7.34 13.79,-11.82 7.17,-7.8 64.72,-83.42 17.12,-82.75 z m -133.62,326.66 c -0.63,5.77 -0.98,11.72 0.79,17.24 1.77,5.52 6.1,10.57 11.79,11.62 5.28,0.98 10.51,-1.52 15.3,-3.95 15.79,-8 32,-16.33 43.53,-29.76 7.07,-8.24 12.05,-18.05 16.84,-27.8 9.59,-19.49 31.49,-48.45 32.43,-70.76 1.25,-29.38 -28.07,-44.24 -52.95,-33.14 -24.04,10.73 -37.39,36.37 -47.14,60.83 -9.72,24.37 -17.76,49.63 -20.59,75.72 z M 822.273,3252.38 c -9.05,1.54 -19.281,5.76 -21.367,14.71 -1.414,6.07 1.676,12.5 6.313,16.67 4.633,4.18 10.597,6.51 16.48,8.59 14.547,5.16 93.762,32.77 90.766,-3.9 -2.5,-30.53 -71.352,-39.61 -92.192,-36.07 z m -9.914,440.96 c -2.879,6.46 -4.023,14.37 -0.269,20.37 3.703,5.92 11.402,8.4 18.332,7.58 6.933,-0.82 13.223,-4.4 18.953,-8.37 11.25,-7.81 21.195,-17.49 29.32,-28.51 l -0.382,-8.72 c -10.536,-7.68 -24.598,-10.3 -37.192,-6.93 -12.598,3.37 -23.469,12.66 -28.762,24.58 z m 797.661,-271.29 c -1.96,69.24 -21.56,148.1 -83.56,178.98 -49.77,24.78 -113.87,11.03 -160.01,42.02 78.92,12.29 160.46,7.37 237.33,-14.31 -36.28,65.91 -72.65,131.98 -115.81,193.61 -39.2,55.97 -91.93,112.32 -160.15,116.06 -49.67,2.72 -97.24,-24.34 -130.93,-60.94 -7.56,-8.4 -14.47,-16.75 -20.89,-25.11 -0.59,13.13 -1.7,25.89 -3.42,37.87 -7.04,49.24 -30.92,98.49 -73.4,124.38 -58.35,35.55 -133.719,18.96 -197.719,-4.97 -70.477,-26.35 -137.867,-60.21 -205.098,-93.99 75.633,-25.66 145.633,-67.79 203.719,-122.61 -55.586,0.59 -100.633,48.22 -155.68,55.98 -68.586,9.66 -129.398,-44.23 -170.226,-100.19 38.844,12.12 80.984,-3.51 115.762,-24.64 34.781,-21.12 66.531,-48.14 104.734,-62.14 -41.734,0.52 -79.383,25.96 -120.82,31.01 -41.465,5.06 -82.336,-10.64 -121.164,-26.04 -36.836,-54.12 -52.676,-122.15 -43.532,-186.97 52.004,45.77 123.532,84.36 188.231,59.61 -29.754,-21.94 -65.489,-33.9 -98.563,-50.43 -33.07,-16.52 -65.488,-39.94 -78.609,-74.5 -8.047,-21.22 -8.008,-44.57 -6.692,-67.22 2.395,-41.12 8.661,-82.01 18.68,-121.96 19.953,15.5 24.684,43.75 40.629,63.35 10.527,12.94 25.426,21.46 40.266,29.08 63.605,32.68 132.91,54.24 203.828,63.43 -45.848,-33.73 -102.297,-48.95 -153.992,-72.77 -51.696,-23.82 -102.762,-61.59 -116.43,-116.85 -9.004,-36.4 -0.25,-74.82 12.051,-110.25 49.57,59.7 131.523,79.02 207.484,94.85 15.383,3.21 30.996,6.44 46.676,5.41 -21.371,-32.58 -63.188,-43.18 -100.406,-54.72 -52.575,-16.3 -103.039,-39.4 -149.75,-68.53 7.269,-46.22 25.914,-90.6 53.832,-128.14 3.57,-4.81 7.675,-9.78 13.433,-11.42 4.707,-1.34 9.731,-0.22 14.449,1.08 55.043,15.16 101.375,54.38 156.922,67.6 6.493,1.54 14.203,2.41 19.004,-2.22 9.883,-9.51 -4.57,-24.44 -17.019,-30.19 -57.024,-26.33 -114.043,-52.67 -171.063,-79 38.297,-47.98 75.008,-149.6 168.063,-191.51 1.121,-0.89 2.379,-1.55 3.851,-1.86 l 0.078,-0.04 0.008,0.01 c 83.039,-16.79 204.433,34.72 264.003,52.83 -32.08,53.99 -64.16,107.99 -96.245,161.99 -7.008,11.79 -10.465,32.28 3.066,34.52 6.579,1.1 12.454,-3.99 16.918,-8.93 38.301,-42.35 54.281,-100.91 91.061,-144.59 3.14,-3.74 6.66,-7.51 11.29,-9.07 5.68,-1.9 11.87,-0.14 17.54,1.8 44.27,15.13 84.77,41.16 116.93,75.13 -21.99,50.46 -50.51,98.08 -84.61,141.29 -24.14,30.59 -52.6,63.01 -51.77,101.97 13.51,-8.04 24.55,-19.54 35.41,-30.9 53.64,-56.07 110.25,-118.4 117.29,-195.67 30.21,22.23 59.18,48.94 72.37,84.04 20.03,53.28 -0.67,113.34 -29.78,162.24 -29.12,48.91 -67.03,93.41 -85.71,147.18 53.25,-47.73 98.15,-104.75 132.07,-167.71 7.91,-14.68 15.37,-30.14 16.71,-46.77 2.05,-25.18 -10.05,-51.14 -2.38,-75.21 30.89,27.25 59.2,57.4 84.46,89.93 13.91,17.93 27.17,37.15 32.55,59.19 8.76,35.92 -4.69,73.58 -22.59,105.93 -17.91,32.35 -40.58,62.45 -52.69,97.38 67.35,-16.24 104.44,-88.56 121.39,-155.73 44.24,48.25 69.71,113.29 70,178.75 -23.28,34.68 -48.08,70.77 -85.12,90.08 -37.01,19.31 -82.44,19.66 -117.14,42.87 39.42,-10.1 80.89,-5.81 121.52,-8.1 40.62,-2.28 84.21,-13.26 109.36,-45.25 z" />
    </clipPath>
    <linearGradient
       id="linearGradient8652"
       spreadMethod="pad"
       gradientTransform="matrix(925.19,115.199,115.199,-925.19,637.716,3320.78)"
       gradientUnits="userSpaceOnUse"
       y2="0"
       x2="1"
       y1="0"
       x1="0">
      <stop
         id="stop8648"
         offset="0"
         style="stop-opacity:1;stop-color:#3a664f" />
      <stop
         id="stop8650"
         offset="1"
         style="stop-opacity:1;stop-color:#46735d" />
    </linearGradient>
    <clipPath
       id="clipPath8964"
       clipPathUnits="userSpaceOnUse">
      <path
         inkscape:connector-curvature="0"
         id="path8962"
         d="m 4104.75,3891.94 c 31.04,23.55 69.22,35.82 107.46,43.28 98.91,19.32 209.62,5.85 285.68,-60.25 73.28,-63.68 102.44,-163.66 119.94,-259.14 -105.46,90.9 -269.12,106.72 -390.04,37.7 130.66,-46.12 263.3,-86.62 397.43,-121.37 10.84,-2.8 22.52,-6.11 29.31,-15.01 3.96,-5.19 5.73,-11.67 7.42,-17.98 22.6,-84.43 42.79,-182.84 -10.02,-252.5 -14.83,46.41 -59.17,76.13 -101.5,100.23 -109.82,62.52 -226.76,112.51 -347.83,148.71 -6.91,-29.72 28.44,-50.06 57.04,-60.68 76.18,-28.3 149.83,-63.4 219.78,-104.76 64.2,-37.97 131.71,-92.3 134.08,-166.85 1.34,-42.54 -19.46,-82.27 -39.68,-119.72 -15.57,-28.81 -31.13,-57.63 -46.7,-86.45 -60.61,77.88 -121.21,155.77 -181.82,233.65 -30.51,39.21 -61.36,78.78 -99.83,110.21 -38.48,31.43 -85.79,54.46 -135.46,55.03 -10.99,0.13 -24.38,-2.59 -27.81,-13.02 -3.09,-9.35 3.91,-18.75 10.43,-26.13 90.95,-103.09 178.87,-208.85 263.6,-317.12 29.88,-38.19 60.73,-80.4 61.46,-128.89 1.13,-75.25 -68.17,-130.04 -130.49,-172.21 -46.5,96.8 -100.04,190.22 -160.06,279.26 -27.94,41.45 -58.6,83.17 -101.91,108.14 2.14,-53.74 23.91,-104.41 38.52,-156.17 24.59,-87.08 29.05,-179.76 12.95,-268.8 -62.5,42.18 -148.61,46.38 -214.91,10.46 0.15,19.99 -10.09,39.78 -26.51,51.18 -14.78,10.28 -34.73,14.77 -44,30.21 -9.64,16.05 -3.38,36.51 2.87,54.15 19.54,55.13 36.84,111.05 51.86,167.58 4.47,16.84 6.54,39.22 -8.83,47.43 -15.05,8.04 -32.32,-5.4 -43.65,-18.15 -24.78,-27.84 -47.43,-57.57 -67.68,-88.85 -10.64,-16.41 -20.83,-33.83 -23.66,-53.18 -2.84,-19.35 7.5,-31.47 19.52,-52.06 -25.09,18.66 -47.97,39.92 -69.66,62.38 -9.4,9.74 -18.15,20 -27.82,29.47 -11.95,11.72 -23.14,23.39 -26.02,40.63 -2.34,14.05 1.32,28.14 6.21,41.24 4.97,13.29 9.99,26.6 15.18,39.82 11.48,29.28 24.62,58.16 42.01,84.45 16.93,25.59 38.13,48.52 64.25,64.89 43.93,27.54 104.2,40.05 124.27,87.86 -21.86,7.67 -45.9,-0.36 -67.05,-9.79 -121.04,-53.97 -218.84,-157.95 -265.3,-282.06 -20.08,54.39 -40.17,108.78 -60.25,163.17 -3.52,9.53 -7.06,19.16 -8.27,29.25 -2.28,18.94 3.86,37.92 11.87,55.24 53.96,116.53 184.09,173.38 302.25,223.7 29.7,12.64 63.93,31.84 65.29,64.09 -160.74,-20.69 -311.36,-110.73 -405.67,-242.53 16.1,30.18 10.75,67.4 -0.75,99.61 -11.51,32.21 -28.72,62.52 -36,95.95 -2.05,9.43 -3.25,19.44 -0.12,28.58 4.07,11.86 14.63,20.12 24.88,27.35 74.51,52.66 160.49,88.97 250.18,105.68 40.42,7.53 91.44,20.17 97.64,60.82 -125.46,-1.72 -250.72,-17.19 -372.83,-46.06 91.93,31.54 106.06,164.98 190.04,213.93 32.14,18.74 74.36,25.07 94.57,56.32 6.32,9.79 9.75,21.16 15.45,31.33 24.57,43.78 83.29,53.94 133.34,49.97 42.67,-3.38 89.09,-16.34 112.13,-52.41 21.91,-34.26 16.22,-78.32 16.89,-118.98 0.41,-25.46 5.11,-62.14 24.72,-80.92 19.91,-19.06 38.82,-6.56 47.9,15.54 22.32,54.35 33.86,105.74 83.71,143.55 z" />
    </clipPath>
    <linearGradient
       id="linearGradient8970"
       spreadMethod="pad"
       gradientTransform="matrix(-741.592,403.196,403.196,741.592,4484.25,3111.1)"
       gradientUnits="userSpaceOnUse"
       y2="0"
       x2="1"
       y1="0"
       x1="0">
      <stop
         id="stop8966"
         offset="0"
         style="stop-opacity:1;stop-color:#3a664f" />
      <stop
         id="stop8968"
         offset="1"
         style="stop-opacity:1;stop-color:#46735d" />
    </linearGradient>
    <clipPath
       id="clipPath9004"
       clipPathUnits="userSpaceOnUse">
      <path
         inkscape:connector-curvature="0"
         id="path9002"
         d="m 1060.96,1476.53 c -1.53,-2.66 -5.18,-4.27 -9.06,-4.36 -7.28,-0.14 -14.58,0.53 -21.7,2.01 -4.1,0.86 -8.28,2.06 -11.47,4.75 -3.19,2.71 -5.15,7.27 -3.68,11.18 1.35,3.6 5.21,5.74 9.03,6.18 3.82,0.44 7.63,-0.51 11.35,-1.47 7.87,-2.02 19.13,-3.29 24.36,-10.42 2.27,-3.11 2.36,-5.8 1.17,-7.87 z m -17.67,-113.54 c -6.88,-2.44 -14.53,-1.22 -21.49,0.99 -10.75,3.41 -20.64,9.03 -30.433,14.62 -6.078,3.47 -12.246,7 -17.144,12 -4.903,5 -8.457,11.74 -8.071,18.73 0,35.41 85.108,-10.52 88.408,-29.64 1.24,-7.19 -4.39,-14.25 -11.27,-16.7 z m -49.212,-92.32 c -13.363,-1.56 -26.715,3.46 -38.254,10.38 -11.539,6.92 -21.82,15.77 -33.179,22.99 -4.317,2.74 -8.93,5.38 -11.825,9.6 -5.222,7.61 -2.527,19.43 5.481,24.02 9.429,5.41 21.367,0.62 30.508,-5.27 10.558,-6.81 21.511,-15.2 29.968,-24.58 2.657,-2.95 22.465,-36.55 17.301,-37.14 z m -63.226,-75.69 c -5.168,-1.53 -10.25,2.26 -14.305,5.81 -15.371,13.42 -30.742,26.86 -46.113,40.29 -10.2,8.92 -11.739,21.08 3.765,19.24 7.637,-0.91 17.524,-9.66 23.098,-14.72 4.629,-4.21 43.379,-47.73 33.555,-50.62 z m -70.68,243.69 c -0.559,-2.22 -1.406,-4.6 -3.379,-5.75 -2.77,-1.64 -6.328,-0.07 -8.84,1.94 -9.926,7.98 -22.754,34.9 -5.215,41.15 20.426,7.3 20.438,-25.45 17.434,-37.34 z m -87.121,-52.74 c -1.121,0.1 -2.078,0.84 -2.91,1.6 -10.141,9.32 -11.942,24.33 -14.422,37.88 -2.028,11.05 -5.012,22 -10.235,32.01 -2.336,4.47 -16.632,24.56 1.133,19.87 4.906,-1.3 8.246,-5.74 10.934,-10.05 13.828,-22.16 20.84,-48.5 19.851,-74.61 -0.113,-3 -1.367,-6.95 -4.351,-6.7 z m -319.473,-0.35 c 53.223,-4.45 105.86,-15.91 156.012,-34.27 -53.481,-14.05 -106.793,5.6 -156.012,34.27 z m 673.382,-34.03 c 70.53,-0.24 137.32,-29.73 206.53,-43.32 92.4,-18.15 190.3,-7.18 276.39,30.96 8.01,3.55 16.27,7.61 21.37,14.72 8.98,12.52 5.38,29.58 4.79,44.97 -1.07,27.66 9.52,55.57 28.65,75.56 -170.81,-23.42 -344.32,-27.14 -515.99,-11.06 -8.94,0.84 -18.76,2.16 -24.76,8.85 -8.52,9.47 -4.46,25.61 5.25,33.87 9.71,8.26 23.03,10.56 35.7,11.93 75.31,8.15 151.03,-5.62 226.63,-10.35 75.61,-4.73 155.93,0.94 219.04,42.83 14.68,9.75 28.96,22.6 32.69,39.82 8.34,38.54 -38.6,81.06 -15.28,112.87 -116.6,-54.03 -244.7,-83.06 -373.2,-84.58 12.59,28.63 48.13,37.9 79.15,41.89 101.32,13.06 213.79,10.89 291.32,77.41 3.88,3.32 7.87,7.23 8.53,12.29 0.75,5.66 -2.86,10.87 -5.93,15.68 -16.71,26.18 -21.89,59.43 -13.92,89.44 -66.53,-45.17 -147.16,-69.24 -227.57,-67.94 39.29,65.22 109.7,110.72 185.31,119.75 -13.15,43.77 -62.65,63.6 -106.15,77.59 -32.15,10.34 -68.36,20.44 -98.45,5.13 -26.84,-13.65 -40.59,-43.48 -52.4,-71.15 -14.21,-33.29 -28.41,-66.57 -42.62,-99.85 -4,-9.37 -9.57,-20.04 -19.64,-21.66 -20.26,-3.25 -23.62,28.28 -17.61,47.89 24.71,80.6 53.92,167.46 123.84,214.53 -57.37,15.22 -126.64,27.63 -169.25,-13.69 -26.31,-25.51 -33.64,-64.24 -40.57,-100.23 -15.55,-80.74 -35.67,-160.61 -60.22,-239.08 -4.94,-15.8 -15.58,-35.09 -31.85,-32.02 -18.14,3.43 -18.62,29.1 -14.49,47.09 29.27,127.77 58.55,255.53 87.82,383.3 -46.92,-0.25 -93.77,-9.85 -136.996,-28.09 -12.429,-5.24 -25.043,-11.58 -33.195,-22.32 -9.797,-12.91 -11.602,-30 -13.063,-46.14 -10.953,-121.37 -21.91,-242.76 -32.867,-364.15 -11.531,3.5 -15.691,17.4 -17.804,29.27 -24.235,136.11 -12.926,278.39 32.507,408.95 -57.082,-11.63 -112.691,-30.44 -165.113,-55.84 -7.973,-3.87 -16.199,-8.17 -21.273,-15.42 -6.282,-9 -6.536,-20.74 -6.414,-31.69 1.468,-135.55 25.148,-270.83 69.816,-398.81 -61.621,10.88 -94.652,76.9 -118.203,134.87 -30.649,75.45 -61.758,153.03 -63.301,234.44 -33.434,-0.18 -60.148,-31.67 -66.101,-64.56 -5.958,-32.9 3.929,-66.44 14.972,-97.99 33.016,-94.26 77.473,-184.52 132.094,-268.13 -17.078,-4 -33,9.29 -44.988,22.09 -81.567,87.18 -134.696,200.54 -149.5,319 -40.25,-22.62 -83.879,-49.28 -97.453,-93.41 -15.098,-49.09 12.875,-100.5 43.488,-141.74 46.578,-62.75 101.922,-118.97 163.929,-166.52 -115.785,-6.18 -215.023,86.9 -268.929,189.56 -33.938,-69.61 -33.633,-154.94 0.797,-224.3 5.664,-11.42 12.664,-22.89 23.679,-29.31 8.715,-5.07 18.86,-6.37 29.059,-6.82 13.519,-47.71 27.039,-95.43 40.559,-143.16 2.085,-7.34 4.386,-15.07 9.933,-20.32 6.848,-6.49 17.008,-7.73 26.422,-8.33 36.801,-2.36 73.914,0.02 110.133,6.92 19.351,3.69 59.074,22.13 78.777,10.47 24.942,-14.76 -0.539,-31.77 -15.746,-47.27 -22.363,-22.81 -46.281,-44.14 -65.816,-69.54 -25.586,-33.28 -43.5,-75.99 -34.328,-116.95 12.523,-55.891 68.718,-88.91 119.558,-115.27 72.875,-37.8 152.617,-76.742 233.438,-62.339 -61.457,60.879 -99.965,144.398 -106.371,230.669 12.703,-1.31 21.652,-12.72 28.664,-23.39 28.574,-43.479 51.007,-90.979 66.425,-140.67 5.528,-17.809 10.399,-36.379 21.661,-51.25 9.859,-13.031 23.921,-22.211 38.304,-29.949 49.526,-26.641 106.586,-39.082 162.706,-35.461 -121.503,49.109 -208.339,174.121 -211.94,305.11 58.5,-68.27 112.93,-140.028 162.9,-214.759 13.07,-19.562 28.04,-40.91 50.96,-46.222 11.28,-2.617 23.09,-0.887 34.45,1.363 46.76,9.297 91.74,27.418 131.9,53.109 -136.05,43.149 -250.78,149.039 -304.675,281.209 122.905,-41.68 193.225,-189.74 321.135,-211.662 85.76,-14.699 177.97,42.41 203.02,125.732 -164.58,1.26 -333.3,57.17 -447.55,175.64 56.31,4.45 105.27,-34.55 153.37,-64.19 70.09,-43.21 150.4,-69.73 232.43,-76.77 44.1,-3.79 92.66,-0.53 125.81,28.8 37.79,33.42 44.14,90.02 73.42,131.09 -176.41,-25.03 -360.5,7.33 -517.8,91.01 z" />
    </clipPath>
    <linearGradient
       id="linearGradient9010"
       spreadMethod="pad"
       gradientTransform="matrix(268.692,935.048,935.048,-268.692,862.405,988.45)"
       gradientUnits="userSpaceOnUse"
       y2="0"
       x2="1"
       y1="0"
       x1="0">
      <stop
         id="stop9006"
         offset="0"
         style="stop-opacity:1;stop-color:#758b68" />
      <stop
         id="stop9008"
         offset="1"
         style="stop-opacity:1;stop-color:#86986d" />
    </linearGradient>
    <clipPath
       id="clipPath9094"
       clipPathUnits="userSpaceOnUse">
      <path
         inkscape:connector-curvature="0"
         id="path9092"
         d="m 4127.29,890.941 c -25.56,-35.41 -56.21,-69.191 -96.4,-86.25 -47.53,-20.171 -103.25,-14.07 -150.38,7.008 -47.13,21.09 -86.82,55.832 -122.66,93 -91.5,94.883 -162.89,209.051 -208.12,332.851 59.37,-28.7 119.49,-57.66 184.05,-71.1 64.56,-13.43 135.06,-9.95 191.95,23.4 -43.46,3.09 -86.92,6.18 -130.39,9.28 -54.22,3.85 -108.71,7.75 -161.63,20.16 -36.74,8.61 -74.39,22.55 -98.48,51.6 -18.54,22.38 -26.98,51.2 -34.95,79.14 -18.71,65.52 -37.6,133.45 -27.82,200.88 175.24,-81.17 354.64,-163.52 546.84,-182.42 -189.38,35.17 -366.83,131.85 -499.06,271.9 -10.43,11.04 -20.94,23.01 -24.52,37.78 -3.33,13.74 -0.19,28.16 3.54,41.81 16.34,59.83 44.3,116.47 81.88,165.82 59.28,-143.23 169.64,-264.68 306.55,-337.37 12.25,-6.5 25.23,-12.76 39.1,-13.04 13.86,-0.29 28.84,7.07 33.11,20.27 -154.92,41.84 -291.41,147.92 -370.2,287.71 -6.49,11.51 -12.74,23.74 -13.2,36.95 -0.58,16.63 8.07,32.07 17.18,45.99 20.75,31.73 45.36,60.95 73.11,86.79 9.48,-16.99 5.52,-38.02 8.63,-57.23 5.77,-35.74 35.1,-62.3 62.64,-85.8 38.6,-32.94 80.92,-67.48 131.54,-71.09 -55.71,45.05 -113.45,92.7 -141.95,158.44 -28.52,65.72 -16.85,154.87 44.76,191.44 44.95,26.68 110.07,23.68 138.17,67.77 9.26,-32.53 41.92,-52.67 74,-63.39 32.08,-10.73 66.6,-15.49 95.8,-32.56 64.03,-37.44 83.24,-125.11 64.35,-196.83 -18.13,-68.81 -64.71,-133.31 -55.42,-203.85 68.38,106.64 109.54,230.57 118.54,356.93 40.14,-34.48 83.21,-74.41 88.05,-127.1 2.07,-22.6 -3.34,-45.16 -9.01,-67.14 -24.83,-96.24 -55.53,-190.97 -91.87,-283.49 -8.66,-22.02 -16.9,-49.32 -1.58,-67.36 81.63,137.74 140.61,288.88 173.88,445.49 53.02,-47.08 96.78,-104.55 128.07,-168.18 9.3,-18.91 17.66,-39.08 17.35,-60.14 -0.29,-20.06 -8.41,-39.13 -17.53,-56.99 -30.32,-59.38 -73.42,-112.19 -125.51,-153.79 -48.66,-38.88 -106.79,-69.98 -138.15,-123.8 9.09,-4.73 20.04,0.17 29,5.17 112.6,62.8 212.17,148.87 290.59,251.23 33.89,-111.05 103.45,-215.83 96.71,-331.73 -5.61,-96.51 -63.5,-181.02 -119.35,-259.92 -13.92,-19.67 -28.37,-39.86 -48.75,-52.73 -26.31,-16.62 -59.25,-18.91 -90.25,-16.14 -35.09,3.13 -69.55,12.41 -101.65,26.88 -15.72,7.09 -64.91,47.82 -82.94,41.14 -17.89,-6.62 -15.85,-63.65 -21.91,-82.721 -12.02,-37.839 -32.57,-72.629 -55.71,-104.668 z" />
    </clipPath>
    <linearGradient
       id="linearGradient9100"
       spreadMethod="pad"
       gradientTransform="matrix(-908.59,437.954,437.954,908.59,4538.89,1205.8)"
       gradientUnits="userSpaceOnUse"
       y2="0"
       x2="1"
       y1="0"
       x1="0">
      <stop
         id="stop9096"
         offset="0"
         style="stop-opacity:1;stop-color:#758b68" />
      <stop
         id="stop9098"
         offset="1"
         style="stop-opacity:1;stop-color:#86986d" />
    </linearGradient>
  </defs>
  <sodipodi:namedview
     id="base"
     pagecolor="#ffffff"
     bordercolor="#666666"
     borderopacity="1.0"
     inkscape:pageopacity="0.0"
     inkscape:pageshadow="2"
     inkscape:zoom="2"
     inkscape:cx="226.61454"
     inkscape:cy="154.69831"
     inkscape:document-units="px"
     inkscape:current-layer="g2090"
     inkscape:document-rotation="0"
     showgrid="true"
     inkscape:pagecheckerboard="true"
     showborder="true"
     borderlayer="false"
     inkscape:showpageshadow="true"
     units="px"
     inkscape:window-width="1680"
     inkscape:window-height="960"
     inkscape:window-x="0"
     inkscape:window-y="23"
     inkscape:window-maximized="1"
     inkscape:snap-global="false">
    <inkscape:grid
       type="xygrid"
       id="grid1876" />
  </sodipodi:namedview>
  <metadata
     id="metadata1871">
    <rdf:RDF>
      <cc:Work
         rdf:about="">
        <dc:format>image/svg+xml</dc:format>
        <dc:type
           rdf:resource="http://purl.org/dc/dcmitype/StillImage" />
        <dc:title />
      </cc:Work>
    </rdf:RDF>
  </metadata>
  <g
     inkscape:label="Calque 1"
     inkscape:groupmode="layer"
     id="layer1">
    <rect
       inkscape:label="fond"
       style="display:inline;mix-blend-mode:normal;fill:#f485ac;fill-opacity:1;fill-rule:evenodd;stroke-width:1.05785"
       id="rect1926"
       width="470"
       height="300"
       x="-10"
       y="-10" />
    <g
       inkscape:label="glace"
       style="display:inline"
       transform="rotate(68.863081,194.1435,276.12048)"
       id="g2090">
      <path
         style="fill:#e8c186;fill-opacity:1"
         sodipodi:nodetypes="ssscccs"
         inkscape:connector-curvature="0"
         fill="#dbc19a"
         stroke="null"
         stroke-width="1.5"
         stroke-opacity="null"
         d="m 59.940618,390.98019 c 0,11.0179 10.690514,20.13125 20.10255,20.10259 10.001783,-0.0305 20.091132,-9.12234 20.102552,-20.10259 0.0128,-12.31816 0,-80.4102 0,-80.4102 H 59.940618 v 70.46553 z"
         id="svg_9" />
      <path
         sodipodi:nodetypes="ssssccs"
         inkscape:connector-curvature="0"
         fill="#45ccc1"
         stroke-width="1.5"
         d="m -0.36703187,290.46744 c 0,16.66189 12.12246287,24.90833 25.12818787,24.93147 l 110.564024,0.19671 c 12.06152,0.0214 25.12819,-12.73911 25.12819,-25.12818 V 74.365023 H -0.36703187 Z"
         id="svg_2"
         style="fill:#484c7f;fill-opacity:1" />
      <path
         fill="#fff"
         stroke="#000"
         stroke-width="1.5"
         id="svg_1"
         d=""
         inkscape:connector-curvature="0" />
      <path
         fill="#45ccc1"
         stroke-width="1.5"
         id="svg_4"
         d=""
         inkscape:connector-curvature="0" />
      <path
         fill="#45ccc1"
         stroke="null"
         stroke-width="1.5"
         stroke-opacity="null"
         fill-opacity="null"
         id="svg_7"
         d=""
         inkscape:connector-curvature="0" />
      <path
         style="fill:#9975d5;fill-opacity:1"
         id="svg_2-2-8-7"
         d="m -0.36703187,255.23809 35.17946287,0.0499 c 35.179462,0 22.421424,20.10255 35.179462,20.10255 12.758039,0 0,-20.10255 35.179467,-20.10255 h 55.28201 v -80.4102 H -0.36703187 Z"
         stroke-width="1.5"
         fill="#45ccc1"
         inkscape:connector-curvature="0"
         sodipodi:nodetypes="cczccccc" />
      <path
         id="svg_2-2-8"
         style="fill:#fc7978;fill-opacity:1;stroke-width:1.00513"
         d="m -0.36703187,134.62359 v 60.25661 l 70.35892487,0.10012 c 25.128188,0 14.401594,20.10255 25.128188,20.10255 10.726589,0 0,-20.10255 25.128189,-20.10255 l 40.2051,-0.049 v -60.30765 z"
         inkscape:connector-curvature="0"
         sodipodi:nodetypes="ccczcccc" />
      <path
         style="fill:#f1af4b;fill-opacity:1"
         id="svg_2-2"
         d="m -0.36703187,134.62276 c 35.17946287,0.0499 30.15382487,25.1781 40.20509987,25.1781 10.051275,0 5.025638,-20.10255 20.10255,-20.10255 15.076913,0 12.463581,10.05128 20.10255,10.05128 7.638969,0 5.02564,-15.03221 25.512512,-15.04436 l 54.89769,-0.0326 V 74.365023 H -0.36703187 Z"
         stroke-width="1.5"
         fill="#45ccc1"
         inkscape:connector-curvature="0"
         sodipodi:nodetypes="czczscccc" />
      <path
         style="stroke:none;stroke-opacity:1"
         id="svg_2-7"
         d="m 90.094443,74.375796 c 17.690247,-0.01077 15.076917,20.091777 25.128187,20.10255 10.05128,0.01077 7.63897,-20.113323 24.4581,-20.10255 h 20.77264 c 0,-30.153826 -24.78568,-74.56747491 -80.410202,-75.3845632 C 24.412647,-1.825944 -0.36703187,44.028698 -0.36703187,74.375796 Z"
         stroke-width="1.5"
         fill="#45ccc1"
         inkscape:connector-curvature="0"
         sodipodi:nodetypes="czccscc" />
    </g>
  </g>
</svg>
