<?xml version="1.0" encoding="UTF-8" standalone="no"?>
<svg
   xmlns:dc="http://purl.org/dc/elements/1.1/"
   xmlns:cc="http://creativecommons.org/ns#"
   xmlns:rdf="http://www.w3.org/1999/02/22-rdf-syntax-ns#"
   xmlns:svg="http://www.w3.org/2000/svg"
   xmlns="http://www.w3.org/2000/svg"
   xmlns:sodipodi="http://sodipodi.sourceforge.net/DTD/sodipodi-0.dtd"
   xmlns:inkscape="http://www.inkscape.org/namespaces/inkscape"
   width="450"
   height="280"
   viewBox="0 0 450.00001 280"
   version="1.1"
   id="svg1874"
   inkscape:version="1.1-dev (f9311a1, 2019-12-25)"
   sodipodi:docname="carte.svg">
  <defs
     id="defs1868">
    <clipPath
       id="clipPath8646"
       clipPathUnits="userSpaceOnUse">
      <path
         inkscape:connector-curvature="0"
         id="path8644"
         d="m 1252.8,3687.4 c 23.82,10.12 47.84,20.31 73.23,25.34 13.22,2.63 107.7,0.49 68.87,-27.74 -5.73,-4.17 -13.04,-5.36 -20.05,-6.42 -41.14,-6.25 -85.94,-11.87 -122.05,8.82 z m 13.87,-431.29 c -25.33,0.35 -47.58,15.95 -68.02,30.92 -8.43,6.17 -17.05,12.55 -22.65,21.35 -5.6,8.82 -7.58,20.75 -2.1,29.64 5.72,9.29 17.43,12.65 28.16,14.65 11.28,2.1 23.56,3.38 33.7,-1.99 5.38,-2.85 9.67,-7.34 13.79,-11.82 7.17,-7.8 64.72,-83.42 17.12,-82.75 z m -133.62,326.66 c -0.63,5.77 -0.98,11.72 0.79,17.24 1.77,5.52 6.1,10.57 11.79,11.62 5.28,0.98 10.51,-1.52 15.3,-3.95 15.79,-8 32,-16.33 43.53,-29.76 7.07,-8.24 12.05,-18.05 16.84,-27.8 9.59,-19.49 31.49,-48.45 32.43,-70.76 1.25,-29.38 -28.07,-44.24 -52.95,-33.14 -24.04,10.73 -37.39,36.37 -47.14,60.83 -9.72,24.37 -17.76,49.63 -20.59,75.72 z M 822.273,3252.38 c -9.05,1.54 -19.281,5.76 -21.367,14.71 -1.414,6.07 1.676,12.5 6.313,16.67 4.633,4.18 10.597,6.51 16.48,8.59 14.547,5.16 93.762,32.77 90.766,-3.9 -2.5,-30.53 -71.352,-39.61 -92.192,-36.07 z m -9.914,440.96 c -2.879,6.46 -4.023,14.37 -0.269,20.37 3.703,5.92 11.402,8.4 18.332,7.58 6.933,-0.82 13.223,-4.4 18.953,-8.37 11.25,-7.81 21.195,-17.49 29.32,-28.51 l -0.382,-8.72 c -10.536,-7.68 -24.598,-10.3 -37.192,-6.93 -12.598,3.37 -23.469,12.66 -28.762,24.58 z m 797.661,-271.29 c -1.96,69.24 -21.56,148.1 -83.56,178.98 -49.77,24.78 -113.87,11.03 -160.01,42.02 78.92,12.29 160.46,7.37 237.33,-14.31 -36.28,65.91 -72.65,131.98 -115.81,193.61 -39.2,55.97 -91.93,112.32 -160.15,116.06 -49.67,2.72 -97.24,-24.34 -130.93,-60.94 -7.56,-8.4 -14.47,-16.75 -20.89,-25.11 -0.59,13.13 -1.7,25.89 -3.42,37.87 -7.04,49.24 -30.92,98.49 -73.4,124.38 -58.35,35.55 -133.719,18.96 -197.719,-4.97 -70.477,-26.35 -137.867,-60.21 -205.098,-93.99 75.633,-25.66 145.633,-67.79 203.719,-122.61 -55.586,0.59 -100.633,48.22 -155.68,55.98 -68.586,9.66 -129.398,-44.23 -170.226,-100.19 38.844,12.12 80.984,-3.51 115.762,-24.64 34.781,-21.12 66.531,-48.14 104.734,-62.14 -41.734,0.52 -79.383,25.96 -120.82,31.01 -41.465,5.06 -82.336,-10.64 -121.164,-26.04 -36.836,-54.12 -52.676,-122.15 -43.532,-186.97 52.004,45.77 123.532,84.36 188.231,59.61 -29.754,-21.94 -65.489,-33.9 -98.563,-50.43 -33.07,-16.52 -65.488,-39.94 -78.609,-74.5 -8.047,-21.22 -8.008,-44.57 -6.692,-67.22 2.395,-41.12 8.661,-82.01 18.68,-121.96 19.953,15.5 24.684,43.75 40.629,63.35 10.527,12.94 25.426,21.46 40.266,29.08 63.605,32.68 132.91,54.24 203.828,63.43 -45.848,-33.73 -102.297,-48.95 -153.992,-72.77 -51.696,-23.82 -102.762,-61.59 -116.43,-116.85 -9.004,-36.4 -0.25,-74.82 12.051,-110.25 49.57,59.7 131.523,79.02 207.484,94.85 15.383,3.21 30.996,6.44 46.676,5.41 -21.371,-32.58 -63.188,-43.18 -100.406,-54.72 -52.575,-16.3 -103.039,-39.4 -149.75,-68.53 7.269,-46.22 25.914,-90.6 53.832,-128.14 3.57,-4.81 7.675,-9.78 13.433,-11.42 4.707,-1.34 9.731,-0.22 14.449,1.08 55.043,15.16 101.375,54.38 156.922,67.6 6.493,1.54 14.203,2.41 19.004,-2.22 9.883,-9.51 -4.57,-24.44 -17.019,-30.19 -57.024,-26.33 -114.043,-52.67 -171.063,-79 38.297,-47.98 75.008,-149.6 168.063,-191.51 1.121,-0.89 2.379,-1.55 3.851,-1.86 l 0.078,-0.04 0.008,0.01 c 83.039,-16.79 204.433,34.72 264.003,52.83 -32.08,53.99 -64.16,107.99 -96.245,161.99 -7.008,11.79 -10.465,32.28 3.066,34.52 6.579,1.1 12.454,-3.99 16.918,-8.93 38.301,-42.35 54.281,-100.91 91.061,-144.59 3.14,-3.74 6.66,-7.51 11.29,-9.07 5.68,-1.9 11.87,-0.14 17.54,1.8 44.27,15.13 84.77,41.16 116.93,75.13 -21.99,50.46 -50.51,98.08 -84.61,141.29 -24.14,30.59 -52.6,63.01 -51.77,101.97 13.51,-8.04 24.55,-19.54 35.41,-30.9 53.64,-56.07 110.25,-118.4 117.29,-195.67 30.21,22.23 59.18,48.94 72.37,84.04 20.03,53.28 -0.67,113.34 -29.78,162.24 -29.12,48.91 -67.03,93.41 -85.71,147.18 53.25,-47.73 98.15,-104.75 132.07,-167.71 7.91,-14.68 15.37,-30.14 16.71,-46.77 2.05,-25.18 -10.05,-51.14 -2.38,-75.21 30.89,27.25 59.2,57.4 84.46,89.93 13.91,17.93 27.17,37.15 32.55,59.19 8.76,35.92 -4.69,73.58 -22.59,105.93 -17.91,32.35 -40.58,62.45 -52.69,97.38 67.35,-16.24 104.44,-88.56 121.39,-155.73 44.24,48.25 69.71,113.29 70,178.75 -23.28,34.68 -48.08,70.77 -85.12,90.08 -37.01,19.31 -82.44,19.66 -117.14,42.87 39.42,-10.1 80.89,-5.81 121.52,-8.1 40.62,-2.28 84.21,-13.26 109.36,-45.25 z" />
    </clipPath>
    <linearGradient
       id="linearGradient8652"
       spreadMethod="pad"
       gradientTransform="matrix(925.19,115.199,115.199,-925.19,637.716,3320.78)"
       gradientUnits="userSpaceOnUse"
       y2="0"
       x2="1"
       y1="0"
       x1="0">
      <stop
         id="stop8648"
         offset="0"
         style="stop-opacity:1;stop-color:#3a664f" />
      <stop
         id="stop8650"
         offset="1"
         style="stop-opacity:1;stop-color:#46735d" />
    </linearGradient>
    <clipPath
       id="clipPath8964"
       clipPathUnits="userSpaceOnUse">
      <path
         inkscape:connector-curvature="0"
         id="path8962"
         d="m 4104.75,3891.94 c 31.04,23.55 69.22,35.82 107.46,43.28 98.91,19.32 209.62,5.85 285.68,-60.25 73.28,-63.68 102.44,-163.66 119.94,-259.14 -105.46,90.9 -269.12,106.72 -390.04,37.7 130.66,-46.12 263.3,-86.62 397.43,-121.37 10.84,-2.8 22.52,-6.11 29.31,-15.01 3.96,-5.19 5.73,-11.67 7.42,-17.98 22.6,-84.43 42.79,-182.84 -10.02,-252.5 -14.83,46.41 -59.17,76.13 -101.5,100.23 -109.82,62.52 -226.76,112.51 -347.83,148.71 -6.91,-29.72 28.44,-50.06 57.04,-60.68 76.18,-28.3 149.83,-63.4 219.78,-104.76 64.2,-37.97 131.71,-92.3 134.08,-166.85 1.34,-42.54 -19.46,-82.27 -39.68,-119.72 -15.57,-28.81 -31.13,-57.63 -46.7,-86.45 -60.61,77.88 -121.21,155.77 -181.82,233.65 -30.51,39.21 -61.36,78.78 -99.83,110.21 -38.48,31.43 -85.79,54.46 -135.46,55.03 -10.99,0.13 -24.38,-2.59 -27.81,-13.02 -3.09,-9.35 3.91,-18.75 10.43,-26.13 90.95,-103.09 178.87,-208.85 263.6,-317.12 29.88,-38.19 60.73,-80.4 61.46,-128.89 1.13,-75.25 -68.17,-130.04 -130.49,-172.21 -46.5,96.8 -100.04,190.22 -160.06,279.26 -27.94,41.45 -58.6,83.17 -101.91,108.14 2.14,-53.74 23.91,-104.41 38.52,-156.17 24.59,-87.08 29.05,-179.76 12.95,-268.8 -62.5,42.18 -148.61,46.38 -214.91,10.46 0.15,19.99 -10.09,39.78 -26.51,51.18 -14.78,10.28 -34.73,14.77 -44,30.21 -9.64,16.05 -3.38,36.51 2.87,54.15 19.54,55.13 36.84,111.05 51.86,167.58 4.47,16.84 6.54,39.22 -8.83,47.43 -15.05,8.04 -32.32,-5.4 -43.65,-18.15 -24.78,-27.84 -47.43,-57.57 -67.68,-88.85 -10.64,-16.41 -20.83,-33.83 -23.66,-53.18 -2.84,-19.35 7.5,-31.47 19.52,-52.06 -25.09,18.66 -47.97,39.92 -69.66,62.38 -9.4,9.74 -18.15,20 -27.82,29.47 -11.95,11.72 -23.14,23.39 -26.02,40.63 -2.34,14.05 1.32,28.14 6.21,41.24 4.97,13.29 9.99,26.6 15.18,39.82 11.48,29.28 24.62,58.16 42.01,84.45 16.93,25.59 38.13,48.52 64.25,64.89 43.93,27.54 104.2,40.05 124.27,87.86 -21.86,7.67 -45.9,-0.36 -67.05,-9.79 -121.04,-53.97 -218.84,-157.95 -265.3,-282.06 -20.08,54.39 -40.17,108.78 -60.25,163.17 -3.52,9.53 -7.06,19.16 -8.27,29.25 -2.28,18.94 3.86,37.92 11.87,55.24 53.96,116.53 184.09,173.38 302.25,223.7 29.7,12.64 63.93,31.84 65.29,64.09 -160.74,-20.69 -311.36,-110.73 -405.67,-242.53 16.1,30.18 10.75,67.4 -0.75,99.61 -11.51,32.21 -28.72,62.52 -36,95.95 -2.05,9.43 -3.25,19.44 -0.12,28.58 4.07,11.86 14.63,20.12 24.88,27.35 74.51,52.66 160.49,88.97 250.18,105.68 40.42,7.53 91.44,20.17 97.64,60.82 -125.46,-1.72 -250.72,-17.19 -372.83,-46.06 91.93,31.54 106.06,164.98 190.04,213.93 32.14,18.74 74.36,25.07 94.57,56.32 6.32,9.79 9.75,21.16 15.45,31.33 24.57,43.78 83.29,53.94 133.34,49.97 42.67,-3.38 89.09,-16.34 112.13,-52.41 21.91,-34.26 16.22,-78.32 16.89,-118.98 0.41,-25.46 5.11,-62.14 24.72,-80.92 19.91,-19.06 38.82,-6.56 47.9,15.54 22.32,54.35 33.86,105.74 83.71,143.55 z" />
    </clipPath>
    <linearGradient
       id="linearGradient8970"
       spreadMethod="pad"
       gradientTransform="matrix(-741.592,403.196,403.196,741.592,4484.25,3111.1)"
       gradientUnits="userSpaceOnUse"
       y2="0"
       x2="1"
       y1="0"
       x1="0">
      <stop
         id="stop8966"
         offset="0"
         style="stop-opacity:1;stop-color:#3a664f" />
      <stop
         id="stop8968"
         offset="1"
         style="stop-opacity:1;stop-color:#46735d" />
    </linearGradient>
    <clipPath
       id="clipPath9004"
       clipPathUnits="userSpaceOnUse">
      <path
         inkscape:connector-curvature="0"
         id="path9002"
         d="m 1060.96,1476.53 c -1.53,-2.66 -5.18,-4.27 -9.06,-4.36 -7.28,-0.14 -14.58,0.53 -21.7,2.01 -4.1,0.86 -8.28,2.06 -11.47,4.75 -3.19,2.71 -5.15,7.27 -3.68,11.18 1.35,3.6 5.21,5.74 9.03,6.18 3.82,0.44 7.63,-0.51 11.35,-1.47 7.87,-2.02 19.13,-3.29 24.36,-10.42 2.27,-3.11 2.36,-5.8 1.17,-7.87 z m -17.67,-113.54 c -6.88,-2.44 -14.53,-1.22 -21.49,0.99 -10.75,3.41 -20.64,9.03 -30.433,14.62 -6.078,3.47 -12.246,7 -17.144,12 -4.903,5 -8.457,11.74 -8.071,18.73 0,35.41 85.108,-10.52 88.408,-29.64 1.24,-7.19 -4.39,-14.25 -11.27,-16.7 z m -49.212,-92.32 c -13.363,-1.56 -26.715,3.46 -38.254,10.38 -11.539,6.92 -21.82,15.77 -33.179,22.99 -4.317,2.74 -8.93,5.38 -11.825,9.6 -5.222,7.61 -2.527,19.43 5.481,24.02 9.429,5.41 21.367,0.62 30.508,-5.27 10.558,-6.81 21.511,-15.2 29.968,-24.58 2.657,-2.95 22.465,-36.55 17.301,-37.14 z m -63.226,-75.69 c -5.168,-1.53 -10.25,2.26 -14.305,5.81 -15.371,13.42 -30.742,26.86 -46.113,40.29 -10.2,8.92 -11.739,21.08 3.765,19.24 7.637,-0.91 17.524,-9.66 23.098,-14.72 4.629,-4.21 43.379,-47.73 33.555,-50.62 z m -70.68,243.69 c -0.559,-2.22 -1.406,-4.6 -3.379,-5.75 -2.77,-1.64 -6.328,-0.07 -8.84,1.94 -9.926,7.98 -22.754,34.9 -5.215,41.15 20.426,7.3 20.438,-25.45 17.434,-37.34 z m -87.121,-52.74 c -1.121,0.1 -2.078,0.84 -2.91,1.6 -10.141,9.32 -11.942,24.33 -14.422,37.88 -2.028,11.05 -5.012,22 -10.235,32.01 -2.336,4.47 -16.632,24.56 1.133,19.87 4.906,-1.3 8.246,-5.74 10.934,-10.05 13.828,-22.16 20.84,-48.5 19.851,-74.61 -0.113,-3 -1.367,-6.95 -4.351,-6.7 z m -319.473,-0.35 c 53.223,-4.45 105.86,-15.91 156.012,-34.27 -53.481,-14.05 -106.793,5.6 -156.012,34.27 z m 673.382,-34.03 c 70.53,-0.24 137.32,-29.73 206.53,-43.32 92.4,-18.15 190.3,-7.18 276.39,30.96 8.01,3.55 16.27,7.61 21.37,14.72 8.98,12.52 5.38,29.58 4.79,44.97 -1.07,27.66 9.52,55.57 28.65,75.56 -170.81,-23.42 -344.32,-27.14 -515.99,-11.06 -8.94,0.84 -18.76,2.16 -24.76,8.85 -8.52,9.47 -4.46,25.61 5.25,33.87 9.71,8.26 23.03,10.56 35.7,11.93 75.31,8.15 151.03,-5.62 226.63,-10.35 75.61,-4.73 155.93,0.94 219.04,42.83 14.68,9.75 28.96,22.6 32.69,39.82 8.34,38.54 -38.6,81.06 -15.28,112.87 -116.6,-54.03 -244.7,-83.06 -373.2,-84.58 12.59,28.63 48.13,37.9 79.15,41.89 101.32,13.06 213.79,10.89 291.32,77.41 3.88,3.32 7.87,7.23 8.53,12.29 0.75,5.66 -2.86,10.87 -5.93,15.68 -16.71,26.18 -21.89,59.43 -13.92,89.44 -66.53,-45.17 -147.16,-69.24 -227.57,-67.94 39.29,65.22 109.7,110.72 185.31,119.75 -13.15,43.77 -62.65,63.6 -106.15,77.59 -32.15,10.34 -68.36,20.44 -98.45,5.13 -26.84,-13.65 -40.59,-43.48 -52.4,-71.15 -14.21,-33.29 -28.41,-66.57 -42.62,-99.85 -4,-9.37 -9.57,-20.04 -19.64,-21.66 -20.26,-3.25 -23.62,28.28 -17.61,47.89 24.71,80.6 53.92,167.46 123.84,214.53 -57.37,15.22 -126.64,27.63 -169.25,-13.69 -26.31,-25.51 -33.64,-64.24 -40.57,-100.23 -15.55,-80.74 -35.67,-160.61 -60.22,-239.08 -4.94,-15.8 -15.58,-35.09 -31.85,-32.02 -18.14,3.43 -18.62,29.1 -14.49,47.09 29.27,127.77 58.55,255.53 87.82,383.3 -46.92,-0.25 -93.77,-9.85 -136.996,-28.09 -12.429,-5.24 -25.043,-11.58 -33.195,-22.32 -9.797,-12.91 -11.602,-30 -13.063,-46.14 -10.953,-121.37 -21.91,-242.76 -32.867,-364.15 -11.531,3.5 -15.691,17.4 -17.804,29.27 -24.235,136.11 -12.926,278.39 32.507,408.95 -57.082,-11.63 -112.691,-30.44 -165.113,-55.84 -7.973,-3.87 -16.199,-8.17 -21.273,-15.42 -6.282,-9 -6.536,-20.74 -6.414,-31.69 1.468,-135.55 25.148,-270.83 69.816,-398.81 -61.621,10.88 -94.652,76.9 -118.203,134.87 -30.649,75.45 -61.758,153.03 -63.301,234.44 -33.434,-0.18 -60.148,-31.67 -66.101,-64.56 -5.958,-32.9 3.929,-66.44 14.972,-97.99 33.016,-94.26 77.473,-184.52 132.094,-268.13 -17.078,-4 -33,9.29 -44.988,22.09 -81.567,87.18 -134.696,200.54 -149.5,319 -40.25,-22.62 -83.879,-49.28 -97.453,-93.41 -15.098,-49.09 12.875,-100.5 43.488,-141.74 46.578,-62.75 101.922,-118.97 163.929,-166.52 -115.785,-6.18 -215.023,86.9 -268.929,189.56 -33.938,-69.61 -33.633,-154.94 0.797,-224.3 5.664,-11.42 12.664,-22.89 23.679,-29.31 8.715,-5.07 18.86,-6.37 29.059,-6.82 13.519,-47.71 27.039,-95.43 40.559,-143.16 2.085,-7.34 4.386,-15.07 9.933,-20.32 6.848,-6.49 17.008,-7.73 26.422,-8.33 36.801,-2.36 73.914,0.02 110.133,6.92 19.351,3.69 59.074,22.13 78.777,10.47 24.942,-14.76 -0.539,-31.77 -15.746,-47.27 -22.363,-22.81 -46.281,-44.14 -65.816,-69.54 -25.586,-33.28 -43.5,-75.99 -34.328,-116.95 12.523,-55.891 68.718,-88.91 119.558,-115.27 72.875,-37.8 152.617,-76.742 233.438,-62.339 -61.457,60.879 -99.965,144.398 -106.371,230.669 12.703,-1.31 21.652,-12.72 28.664,-23.39 28.574,-43.479 51.007,-90.979 66.425,-140.67 5.528,-17.809 10.399,-36.379 21.661,-51.25 9.859,-13.031 23.921,-22.211 38.304,-29.949 49.526,-26.641 106.586,-39.082 162.706,-35.461 -121.503,49.109 -208.339,174.121 -211.94,305.11 58.5,-68.27 112.93,-140.028 162.9,-214.759 13.07,-19.562 28.04,-40.91 50.96,-46.222 11.28,-2.617 23.09,-0.887 34.45,1.363 46.76,9.297 91.74,27.418 131.9,53.109 -136.05,43.149 -250.78,149.039 -304.675,281.209 122.905,-41.68 193.225,-189.74 321.135,-211.662 85.76,-14.699 177.97,42.41 203.02,125.732 -164.58,1.26 -333.3,57.17 -447.55,175.64 56.31,4.45 105.27,-34.55 153.37,-64.19 70.09,-43.21 150.4,-69.73 232.43,-76.77 44.1,-3.79 92.66,-0.53 125.81,28.8 37.79,33.42 44.14,90.02 73.42,131.09 -176.41,-25.03 -360.5,7.33 -517.8,91.01 z" />
    </clipPath>
    <linearGradient
       id="linearGradient9010"
       spreadMethod="pad"
       gradientTransform="matrix(268.692,935.048,935.048,-268.692,862.405,988.45)"
       gradientUnits="userSpaceOnUse"
       y2="0"
       x2="1"
       y1="0"
       x1="0">
      <stop
         id="stop9006"
         offset="0"
         style="stop-opacity:1;stop-color:#758b68" />
      <stop
         id="stop9008"
         offset="1"
         style="stop-opacity:1;stop-color:#86986d" />
    </linearGradient>
    <clipPath
       id="clipPath9094"
       clipPathUnits="userSpaceOnUse">
      <path
         inkscape:connector-curvature="0"
         id="path9092"
         d="m 4127.29,890.941 c -25.56,-35.41 -56.21,-69.191 -96.4,-86.25 -47.53,-20.171 -103.25,-14.07 -150.38,7.008 -47.13,21.09 -86.82,55.832 -122.66,93 -91.5,94.883 -162.89,209.051 -208.12,332.851 59.37,-28.7 119.49,-57.66 184.05,-71.1 64.56,-13.43 135.06,-9.95 191.95,23.4 -43.46,3.09 -86.92,6.18 -130.39,9.28 -54.22,3.85 -108.71,7.75 -161.63,20.16 -36.74,8.61 -74.39,22.55 -98.48,51.6 -18.54,22.38 -26.98,51.2 -34.95,79.14 -18.71,65.52 -37.6,133.45 -27.82,200.88 175.24,-81.17 354.64,-163.52 546.84,-182.42 -189.38,35.17 -366.83,131.85 -499.06,271.9 -10.43,11.04 -20.94,23.01 -24.52,37.78 -3.33,13.74 -0.19,28.16 3.54,41.81 16.34,59.83 44.3,116.47 81.88,165.82 59.28,-143.23 169.64,-264.68 306.55,-337.37 12.25,-6.5 25.23,-12.76 39.1,-13.04 13.86,-0.29 28.84,7.07 33.11,20.27 -154.92,41.84 -291.41,147.92 -370.2,287.71 -6.49,11.51 -12.74,23.74 -13.2,36.95 -0.58,16.63 8.07,32.07 17.18,45.99 20.75,31.73 45.36,60.95 73.11,86.79 9.48,-16.99 5.52,-38.02 8.63,-57.23 5.77,-35.74 35.1,-62.3 62.64,-85.8 38.6,-32.94 80.92,-67.48 131.54,-71.09 -55.71,45.05 -113.45,92.7 -141.95,158.44 -28.52,65.72 -16.85,154.87 44.76,191.44 44.95,26.68 110.07,23.68 138.17,67.77 9.26,-32.53 41.92,-52.67 74,-63.39 32.08,-10.73 66.6,-15.49 95.8,-32.56 64.03,-37.44 83.24,-125.11 64.35,-196.83 -18.13,-68.81 -64.71,-133.31 -55.42,-203.85 68.38,106.64 109.54,230.57 118.54,356.93 40.14,-34.48 83.21,-74.41 88.05,-127.1 2.07,-22.6 -3.34,-45.16 -9.01,-67.14 -24.83,-96.24 -55.53,-190.97 -91.87,-283.49 -8.66,-22.02 -16.9,-49.32 -1.58,-67.36 81.63,137.74 140.61,288.88 173.88,445.49 53.02,-47.08 96.78,-104.55 128.07,-168.18 9.3,-18.91 17.66,-39.08 17.35,-60.14 -0.29,-20.06 -8.41,-39.13 -17.53,-56.99 -30.32,-59.38 -73.42,-112.19 -125.51,-153.79 -48.66,-38.88 -106.79,-69.98 -138.15,-123.8 9.09,-4.73 20.04,0.17 29,5.17 112.6,62.8 212.17,148.87 290.59,251.23 33.89,-111.05 103.45,-215.83 96.71,-331.73 -5.61,-96.51 -63.5,-181.02 -119.35,-259.92 -13.92,-19.67 -28.37,-39.86 -48.75,-52.73 -26.31,-16.62 -59.25,-18.91 -90.25,-16.14 -35.09,3.13 -69.55,12.41 -101.65,26.88 -15.72,7.09 -64.91,47.82 -82.94,41.14 -17.89,-6.62 -15.85,-63.65 -21.91,-82.721 -12.02,-37.839 -32.57,-72.629 -55.71,-104.668 z" />
    </clipPath>
    <linearGradient
       id="linearGradient9100"
       spreadMethod="pad"
       gradientTransform="matrix(-908.59,437.954,437.954,908.59,4538.89,1205.8)"
       gradientUnits="userSpaceOnUse"
       y2="0"
       x2="1"
       y1="0"
       x1="0">
      <stop
         id="stop9096"
         offset="0"
         style="stop-opacity:1;stop-color:#758b68" />
      <stop
         id="stop9098"
         offset="1"
         style="stop-opacity:1;stop-color:#86986d" />
    </linearGradient>
  </defs>
  <sodipodi:namedview
     id="base"
     pagecolor="#ffffff"
     bordercolor="#666666"
     borderopacity="1.0"
     inkscape:pageopacity="0.0"
     inkscape:pageshadow="2"
     inkscape:zoom="1.6234774"
     inkscape:cx="222.15462"
     inkscape:cy="90.87922"
     inkscape:document-units="px"
     inkscape:current-layer="layer1"
     inkscape:document-rotation="0"
     showgrid="true"
     inkscape:pagecheckerboard="true"
     showborder="true"
     borderlayer="false"
     inkscape:showpageshadow="true"
     units="px"
     inkscape:window-width="1680"
     inkscape:window-height="960"
     inkscape:window-x="0"
     inkscape:window-y="23"
     inkscape:window-maximized="0"
     inkscape:snap-global="false">
    <inkscape:grid
       type="xygrid"
       id="grid1876" />
  </sodipodi:namedview>
  <metadata
     id="metadata1871">
    <rdf:RDF>
      <cc:Work
         rdf:about="">
        <dc:format>image/svg+xml</dc:format>
        <dc:type
           rdf:resource="http://purl.org/dc/dcmitype/StillImage" />
        <dc:title />
      </cc:Work>
    </rdf:RDF>
  </metadata>
  <g
     inkscape:label="Calque 1"
     inkscape:groupmode="layer"
     id="layer1">
    <rect
       style="fill:#4d4ccf;fill-rule:evenodd;fill-opacity:1"
       id="rect1926"
       width="450"
       height="280"
       x="0"
       y="0" />
    <g
       style="fill:#1a8561;fill-opacity:1"
       id="g9088"
       transform="matrix(0.03907235,0.12747992,0.12747992,-0.03907235,-294.65881,-212.84334)">
      <g
         style="fill:#1a8561;fill-opacity:1"
         clip-path="url(#clipPath9094)"
         id="g9090">
        <path
           inkscape:connector-curvature="0"
           id="path9102"
           style="fill:#1a8561;fill-opacity:1;fill-rule:nonzero;stroke:none"
           d="m 4127.29,890.941 c -25.56,-35.41 -56.21,-69.191 -96.4,-86.25 -47.53,-20.171 -103.25,-14.07 -150.38,7.008 -47.13,21.09 -86.82,55.832 -122.66,93 -91.5,94.883 -162.89,209.051 -208.12,332.851 59.37,-28.7 119.49,-57.66 184.05,-71.1 64.56,-13.43 135.06,-9.95 191.95,23.4 -43.46,3.09 -86.92,6.18 -130.39,9.28 -54.22,3.85 -108.71,7.75 -161.63,20.16 -36.74,8.61 -74.39,22.55 -98.48,51.6 -18.54,22.38 -26.98,51.2 -34.95,79.14 -18.71,65.52 -37.6,133.45 -27.82,200.88 175.24,-81.17 354.64,-163.52 546.84,-182.42 -189.38,35.17 -366.83,131.85 -499.06,271.9 -10.43,11.04 -20.94,23.01 -24.52,37.78 -3.33,13.74 -0.19,28.16 3.54,41.81 16.34,59.83 44.3,116.47 81.88,165.82 59.28,-143.23 169.64,-264.68 306.55,-337.37 12.25,-6.5 25.23,-12.76 39.1,-13.04 13.86,-0.29 28.84,7.07 33.11,20.27 -154.92,41.84 -291.41,147.92 -370.2,287.71 -6.49,11.51 -12.74,23.74 -13.2,36.95 -0.58,16.63 8.07,32.07 17.18,45.99 20.75,31.73 45.36,60.95 73.11,86.79 9.48,-16.99 5.52,-38.02 8.63,-57.23 5.77,-35.74 35.1,-62.3 62.64,-85.8 38.6,-32.94 80.92,-67.48 131.54,-71.09 -55.71,45.05 -113.45,92.7 -141.95,158.44 -28.52,65.72 -16.85,154.87 44.76,191.44 44.95,26.68 110.07,23.68 138.17,67.77 9.26,-32.53 41.92,-52.67 74,-63.39 32.08,-10.73 66.6,-15.49 95.8,-32.56 64.03,-37.44 83.24,-125.11 64.35,-196.83 -18.13,-68.81 -64.71,-133.31 -55.42,-203.85 68.38,106.64 109.54,230.57 118.54,356.93 40.14,-34.48 83.21,-74.41 88.05,-127.1 2.07,-22.6 -3.34,-45.16 -9.01,-67.14 -24.83,-96.24 -55.53,-190.97 -91.87,-283.49 -8.66,-22.02 -16.9,-49.32 -1.58,-67.36 81.63,137.74 140.61,288.88 173.88,445.49 53.02,-47.08 96.78,-104.55 128.07,-168.18 9.3,-18.91 17.66,-39.08 17.35,-60.14 -0.29,-20.06 -8.41,-39.13 -17.53,-56.99 -30.32,-59.38 -73.42,-112.19 -125.51,-153.79 -48.66,-38.88 -106.79,-69.98 -138.15,-123.8 9.09,-4.73 20.04,0.17 29,5.17 112.6,62.8 212.17,148.87 290.59,251.23 33.89,-111.05 103.45,-215.83 96.71,-331.73 -5.61,-96.51 -63.5,-181.02 -119.35,-259.92 -13.92,-19.67 -28.37,-39.86 -48.75,-52.73 -26.31,-16.62 -59.25,-18.91 -90.25,-16.14 -35.09,3.13 -69.55,12.41 -101.65,26.88 -15.72,7.09 -64.91,47.82 -82.94,41.14 -17.89,-6.62 -15.85,-63.65 -21.91,-82.721 -12.02,-37.839 -32.57,-72.629 -55.71,-104.668" />
      </g>
    </g>
    <g
       style="fill:#18c074;fill-opacity:1"
       id="g8998"
       transform="matrix(-0.03347139,0.10788427,0.10061664,0.03468106,110.69019,-128.97374)">
      <g
         style="fill:#18c074;fill-opacity:1"
         clip-path="url(#clipPath9004)"
         id="g9000">
        <path
           inkscape:connector-curvature="0"
           id="path9012"
           style="fill:#18c074;fill-opacity:1;fill-rule:nonzero;stroke:none"
           d="m 1060.96,1476.53 c -1.53,-2.66 -5.18,-4.27 -9.06,-4.36 -7.28,-0.14 -14.58,0.53 -21.7,2.01 -4.1,0.86 -8.28,2.06 -11.47,4.75 -3.19,2.71 -5.15,7.27 -3.68,11.18 1.35,3.6 5.21,5.74 9.03,6.18 3.82,0.44 7.63,-0.51 11.35,-1.47 7.87,-2.02 19.13,-3.29 24.36,-10.42 2.27,-3.11 2.36,-5.8 1.17,-7.87 z m -17.67,-113.54 c -6.88,-2.44 -14.53,-1.22 -21.49,0.99 -10.75,3.41 -20.64,9.03 -30.433,14.62 -6.078,3.47 -12.246,7 -17.144,12 -4.903,5 -8.457,11.74 -8.071,18.73 0,35.41 85.108,-10.52 88.408,-29.64 1.24,-7.19 -4.39,-14.25 -11.27,-16.7 z m -49.212,-92.32 c -13.363,-1.56 -26.715,3.46 -38.254,10.38 -11.539,6.92 -21.82,15.77 -33.179,22.99 -4.317,2.74 -8.93,5.38 -11.825,9.6 -5.222,7.61 -2.527,19.43 5.481,24.02 9.429,5.41 21.367,0.62 30.508,-5.27 10.558,-6.81 21.511,-15.2 29.968,-24.58 2.657,-2.95 22.465,-36.55 17.301,-37.14 z m -63.226,-75.69 c -5.168,-1.53 -10.25,2.26 -14.305,5.81 -15.371,13.42 -30.742,26.86 -46.113,40.29 -10.2,8.92 -11.739,21.08 3.765,19.24 7.637,-0.91 17.524,-9.66 23.098,-14.72 4.629,-4.21 43.379,-47.73 33.555,-50.62 z m -70.68,243.69 c -0.559,-2.22 -1.406,-4.6 -3.379,-5.75 -2.77,-1.64 -6.328,-0.07 -8.84,1.94 -9.926,7.98 -22.754,34.9 -5.215,41.15 20.426,7.3 20.438,-25.45 17.434,-37.34 z m -87.121,-52.74 c -1.121,0.1 -2.078,0.84 -2.91,1.6 -10.141,9.32 -11.942,24.33 -14.422,37.88 -2.028,11.05 -5.012,22 -10.235,32.01 -2.336,4.47 -16.632,24.56 1.133,19.87 4.906,-1.3 8.246,-5.74 10.934,-10.05 13.828,-22.16 20.84,-48.5 19.851,-74.61 -0.113,-3 -1.367,-6.95 -4.351,-6.7 z m -319.473,-0.35 c 53.223,-4.45 105.86,-15.91 156.012,-34.27 -53.481,-14.05 -106.793,5.6 -156.012,34.27 z m 673.382,-34.03 c 70.53,-0.24 137.32,-29.73 206.53,-43.32 92.4,-18.15 190.3,-7.18 276.39,30.96 8.01,3.55 16.27,7.61 21.37,14.72 8.98,12.52 5.38,29.58 4.79,44.97 -1.07,27.66 9.52,55.57 28.65,75.56 -170.81,-23.42 -344.32,-27.14 -515.99,-11.06 -8.94,0.84 -18.76,2.16 -24.76,8.85 -8.52,9.47 -4.46,25.61 5.25,33.87 9.71,8.26 23.03,10.56 35.7,11.93 75.31,8.15 151.03,-5.62 226.63,-10.35 75.61,-4.73 155.93,0.94 219.04,42.83 14.68,9.75 28.96,22.6 32.69,39.82 8.34,38.54 -38.6,81.06 -15.28,112.87 -116.6,-54.03 -244.7,-83.06 -373.2,-84.58 12.59,28.63 48.13,37.9 79.15,41.89 101.32,13.06 213.79,10.89 291.32,77.41 3.88,3.32 7.87,7.23 8.53,12.29 0.75,5.66 -2.86,10.87 -5.93,15.68 -16.71,26.18 -21.89,59.43 -13.92,89.44 -66.53,-45.17 -147.16,-69.24 -227.57,-67.94 39.29,65.22 109.7,110.72 185.31,119.75 -13.15,43.77 -62.65,63.6 -106.15,77.59 -32.15,10.34 -68.36,20.44 -98.45,5.13 -26.84,-13.65 -40.59,-43.48 -52.4,-71.15 -14.21,-33.29 -28.41,-66.57 -42.62,-99.85 -4,-9.37 -9.57,-20.04 -19.64,-21.66 -20.26,-3.25 -23.62,28.28 -17.61,47.89 24.71,80.6 53.92,167.46 123.84,214.53 -57.37,15.22 -126.64,27.63 -169.25,-13.69 -26.31,-25.51 -33.64,-64.24 -40.57,-100.23 -15.55,-80.74 -35.67,-160.61 -60.22,-239.08 -4.94,-15.8 -15.58,-35.09 -31.85,-32.02 -18.14,3.43 -18.62,29.1 -14.49,47.09 29.27,127.77 58.55,255.53 87.82,383.3 -46.92,-0.25 -93.77,-9.85 -136.996,-28.09 -12.429,-5.24 -25.043,-11.58 -33.195,-22.32 -9.797,-12.91 -11.602,-30 -13.063,-46.14 -10.953,-121.37 -21.91,-242.76 -32.867,-364.15 -11.531,3.5 -15.691,17.4 -17.804,29.27 -24.235,136.11 -12.926,278.39 32.507,408.95 -57.082,-11.63 -112.691,-30.44 -165.113,-55.84 -7.973,-3.87 -16.199,-8.17 -21.273,-15.42 -6.282,-9 -6.536,-20.74 -6.414,-31.69 1.468,-135.55 25.148,-270.83 69.816,-398.81 -61.621,10.88 -94.652,76.9 -118.203,134.87 -30.649,75.45 -61.758,153.03 -63.301,234.44 -33.434,-0.18 -60.148,-31.67 -66.101,-64.56 -5.958,-32.9 3.929,-66.44 14.972,-97.99 33.016,-94.26 77.473,-184.52 132.094,-268.13 -17.078,-4 -33,9.29 -44.988,22.09 -81.567,87.18 -134.696,200.54 -149.5,319 -40.25,-22.62 -83.879,-49.28 -97.453,-93.41 -15.098,-49.09 12.875,-100.5 43.488,-141.74 46.578,-62.75 101.922,-118.97 163.929,-166.52 -115.785,-6.18 -215.023,86.9 -268.929,189.56 -33.938,-69.61 -33.633,-154.94 0.797,-224.3 5.664,-11.42 12.664,-22.89 23.679,-29.31 8.715,-5.07 18.86,-6.37 29.059,-6.82 13.519,-47.71 27.039,-95.43 40.559,-143.16 2.085,-7.34 4.386,-15.07 9.933,-20.32 6.848,-6.49 17.008,-7.73 26.422,-8.33 36.801,-2.36 73.914,0.02 110.133,6.92 19.351,3.69 59.074,22.13 78.777,10.47 24.942,-14.76 -0.539,-31.77 -15.746,-47.27 -22.363,-22.81 -46.281,-44.14 -65.816,-69.54 -25.586,-33.28 -43.5,-75.99 -34.328,-116.95 12.523,-55.891 68.718,-88.91 119.558,-115.27 72.875,-37.8 152.617,-76.742 233.438,-62.339 -61.457,60.879 -99.965,144.398 -106.371,230.669 12.703,-1.31 21.652,-12.72 28.664,-23.39 28.574,-43.479 51.007,-90.979 66.425,-140.67 5.528,-17.809 10.399,-36.379 21.661,-51.25 9.859,-13.031 23.921,-22.211 38.304,-29.949 49.526,-26.641 106.586,-39.082 162.706,-35.461 -121.503,49.109 -208.339,174.121 -211.94,305.11 58.5,-68.27 112.93,-140.028 162.9,-214.759 13.07,-19.562 28.04,-40.91 50.96,-46.222 11.28,-2.617 23.09,-0.887 34.45,1.363 46.76,9.297 91.74,27.418 131.9,53.109 -136.05,43.149 -250.78,149.039 -304.675,281.209 122.905,-41.68 193.225,-189.74 321.135,-211.662 85.76,-14.699 177.97,42.41 203.02,125.732 -164.58,1.26 -333.3,57.17 -447.55,175.64 56.31,4.45 105.27,-34.55 153.37,-64.19 70.09,-43.21 150.4,-69.73 232.43,-76.77 44.1,-3.79 92.66,-0.53 125.81,28.8 37.79,33.42 44.14,90.02 73.42,131.09 -176.41,-25.03 -360.5,7.33 -517.8,91.01" />
      </g>
    </g>
    <path
       inkscape:connector-curvature="0"
       id="path54"
       style="fill:#42daa7;fill-opacity:1;fill-rule:nonzero;stroke:none;stroke-width:0.169659"
       d="m -61.203995,119.42413 c -1.309662,-1.35154 -2.601625,-2.72869 -3.881765,-4.12287 -6.762089,-7.35607 -8.977555,-16.567007 -10.081731,-26.044825 -0.858432,-7.376668 -2.820802,-14.315577 -4.992679,-21.314695 -1.840631,-5.938235 -1.315812,-11.984946 1.163235,-17.752799 4.081576,-9.493433 10.504265,-16.853633 19.112072,-22.18313 3.53669,-2.190238 7.09381,-4.352103 10.726874,-6.367334 3.368881,-1.868632 6.755475,-2.471049 10.746376,-1.38713 4.294027,1.165199 8.356488,2.500896 11.988713,5.135358 0.509199,0.369536 1.05198,0.727322 1.630059,0.948503 2.977626,1.137537 5.628741,-0.957525 5.385465,-4.228516 -0.138523,-1.856443 -0.884524,-3.247826 -1.96817,-4.366116 -0.793824,-0.819201 -1.768921,-1.491561 -2.81737,-2.095786 -1.416194,-0.813127 -2.92781,-1.44685 -4.392643,-2.168807 -1.820903,-0.89928 -3.36972,-2.007694 -4.647492,-3.326315 -2.221717,-2.292743 -3.62893,-5.2220018 -4.246804,-8.7966944 -1.329753,-7.7021766 -0.696873,-15.0315596 2.751597,-22.1730226 5.438499,-11.26419 13.356157,-19.460559 25.1700845,-23.346014 7.30958,-2.403756 14.746597,-3.937499 22.4277035,-4.200491 4.229179,-0.144782 8.454971,-0.102984 12.695157,-0.404611 0.643023,-0.04571 1.289948,-0.06787 1.942305,-0.06983 -0.100708,0.56389 0.04243,1.174815 0.555992,1.704712 1.377918,1.421975 3.338043,0.08361 3.400889,-1.462687 1.881705,0.230819 3.758827,0.617762 5.579369,1.136434 6.747687,1.917989 13.440692,4.037923 20.148467,6.099963 0.663711,0.204742 1.405331,0.297359 2.017059,0.928649 0.134627,0.138932 0.260963,0.303483 0.381423,0.500912 -0.395627,1.307667 -1.68876,1.545314 -2.781136,1.970638 -13.548992,5.261126 -24.012173,14.574426 -32.405139,26.506709 -2.108004,2.996786 -3.777862,6.34333 -3.390506,10.3967339 1.663951,-0.035289 2.0206,-1.4807167 2.742159,-2.4154659 5.283559,-6.846652 9.765235,-14.379431 16.10219,-20.321814 5.545729,-5.201408 11.102082,-10.399156 18.354263,-13.115638 3.422368,-1.282075 6.647545,-1.385671 10.202184,-0.288831 12.382211,3.820622 23.59766,9.81784 33.601454,18.242705 0.62589,0.526486 1.43367,1.057833 2.02768,1.670835 0.58457,0.603255 0.96011,1.283293 0.74518,2.116882 -0.43459,1.689126 -2.68194,1.488032 -4.21952,1.72691 -12.932534,1.997443 -24.776247,7.007506 -35.972789,13.794452 -5.382746,3.2612308 -10.889502,6.3238373 -15.652251,10.588069 -2.586279,2.317963 -4.684841,4.990532 -6.412536,8.006848 -0.497172,0.871372 -1.289598,1.820741 -0.43223,2.788388 0.02393,0.0265 0.04876,0.05209 0.07352,0.07769 0.692022,0.71415 1.732445,0.903055 2.72207,0.681253 2.359539,-0.528917 4.505313,-1.636723 6.399562,-3.121085 3.781379,-2.963887 7.502535,-6.011848 11.16701,-9.128059 7.467126,-6.3482034 15.357026,-11.9822552 24.45147,-15.585955 6.4586,-2.558055 13.152214,-4.022937 20.084354,-4.286167 2.60397,-0.09863 4.99892,0.525284 6.96283,2.310685 2.93702,2.667735 5.86222,5.3452156 8.61381,8.1847789 4.02231,4.1508939 7.66907,8.6454584 10.42539,13.9541181 0.76643,1.475844 1.64506,2.899282 1.69466,4.654216 0.0318,1.171158 -0.23974,2.024252 -1.61672,2.00962 -0.99672,-0.01034 -1.99934,0.157222 -2.9925,0.09992 -13.29509,-0.770224 -26.15205,1.821957 -38.701954,5.915561 -7.154178,2.332596 -13.81234,6.008191 -19.615513,11.077973 -1.64623,1.438073 -2.97363,3.09063 -3.219256,5.471971 -0.172407,1.667177 0.139361,2.910244 0.929409,3.725555 0.709745,0.732453 1.803308,1.119996 3.279479,1.156551 5.548085,0.143818 10.549384,-1.782958 15.425521,-4.199626 3.04328,-1.507538 6.01455,-3.169855 9.073204,-4.642039 10.30965,-4.96742 21.05153,-8.084847 32.54094,-8.020254 2.9004,0.01461 5.70516,0.564258 8.53825,1.050518 1.96156,0.337582 3.45544,1.343012 4.78873,2.718923 0.18304,0.188891 0.36285,0.383586 0.54087,0.587407 2.90749,3.302672 4.921,7.106237 6.37947,11.285169 3.82863,10.975597 6.66998,22.129133 6.71131,33.92492 0.0154,4.556727 1.10891,7.827714 3.57826,10.37601 1.91195,1.973081 4.6494,3.511082 8.34693,4.874804 0.68613,0.25227 1.48919,0.171841 2.12217,0.825056 v 0 c -0.15238,0.320478 -0.22203,0.809211 -0.47474,0.948156 -6.21179,3.429411 -11.20128,8.300561 -15.9841,13.482461 -1.13017,-0.37658 -2.4233,-0.19743 -3.56293,0.88844 -1.30141,1.24304 -1.47145,2.78839 -0.9849,4.10215 -2.96298,3.22349 -6.00157,6.38597 -9.21614,9.35958 -0.10747,-0.13776 -0.2208,-0.26937 -0.34245,-0.3949 -1.32146,-1.36372 -3.46134,-1.86826 -5.23157,-0.18035 -1.7336,1.65502 -1.45847,3.84498 -0.30233,5.31352 -2.76223,1.83659 -5.72406,3.29902 -8.87363,4.44095 -1.56829,0.5679 -2.97835,0.50453 -4.67653,-0.0415 -6.68062,-2.14856 -12.08936,-5.65841 -16.51199,-10.22244 -4.38486,-4.525 -7.79779,-10.08471 -10.523414,-16.38295 -1.58365,-3.6622 -3.16257,-7.31951 -5.24458,-10.691651 -1.10182,-1.782964 -2.313482,-3.464764 -3.721162,-4.91746 -1.725354,-1.780519 -3.748326,-3.219809 -6.229489,-4.088736 -3.532219,-1.234545 -4.717879,-0.574009 -6.011019,2.939504 -1.199841,3.258811 -1.402953,6.55418 -0.409779,9.862943 3.079895,10.26144 7.637169,19.71489 15.058239,27.3732 0.0768,0.0792 0.15352,0.15842 0.23145,0.23887 3.57122,3.63657 7.84031,6.40182 12.704634,7.97273 5.24695,1.69277 10.4986,3.38068 15.93567,4.34101 0.32242,0.0573 0.60464,0.3583 0.85972,0.51916 0.0531,0.69102 -0.30822,1.07367 -0.72982,1.33569 -10.15376,6.29093 -20.792904,11.05239 -32.736999,12.60014 -4.961149,0.64468 -8.871242,-0.77265 -12.47196,-3.73042 -1.979271,-1.62575 -3.829806,-3.33072 -5.550455,-5.10637 C 55.592049,137.14092 49.901963,124.02314 48.240366,108.76136 47.540068,102.33515 46.398085,96.016196 45.166369,89.702118 44.416458,85.85956 42.850544,82.322889 40.206406,79.433349 c -0.07113,-0.0752 -0.14142,-0.151424 -0.211104,-0.223316 -2.843723,-2.934642 -5.6591,-2.356965 -7.396271,1.561153 -1.939111,4.370248 -2.051299,8.963532 -1.346263,13.644543 3.04093,20.197521 12.901824,36.869331 25.359617,52.182281 0.478264,0.58624 0.9802,1.15047 1.503349,1.69035 1.681669,1.73542 3.581809,3.23564 5.601232,4.57132 0.944769,0.62398 1.888322,1.27111 2.738607,2.02183 0.145267,0.12797 0.273952,0.25108 0.388507,0.36929 1.052219,1.08587 0.818381,1.77322 -0.863273,2.30701 -5.250483,1.66474 -10.478537,3.38433 -15.888452,4.51406 -5.863388,1.22479 -11.678356,0.61545 -17.528774,0.30345 -5.019015,-0.26811 -9.42985,-2.63117 -13.749753,-4.78826 -0.734537,-0.36806 -1.400597,-0.89453 -2.009967,-1.52338 -1.38405,-1.42831 -2.483522,-3.38433 -3.457802,-5.18922 -1.094748,-2.02426 -2.100908,-4.11311 -2.961819,-6.25193 -6.5140885,-16.15996 -10.4844225,-32.78301 -8.6327055,-50.485845 0.375537,-3.580535 0.438128,-7.203726 0.13345,-10.811089 -0.186597,-2.191223 -0.61528,-4.310532 -2.006435,-6.791806 -2.789388,3.151548 -4.0128477,6.43961 -4.5088454,10.034759 -1.2069249,8.74052 -1.0970989,17.470071 0.333024,26.182561 1.2931404,7.88132 2.6465054,15.74924 4.3883964,23.54282 1.361632,6.08985 3.083443,11.98347 7.3726465,16.68767 0.248286,0.27268 0.422771,0.64591 0.538512,1.0042 0.06614,0.20718 -0.05674,0.47773 -0.132272,0.97252 -1.098279,0.1268 -2.0489385,-0.36682 -3.0114095,-0.8994 -3.420025,-1.8963 -6.981753,-3.26612 -10.8339948,-4.09726 -8.9680697,-1.93288 -17.6562907,-4.7566 -24.9710697,-10.80379 -0.905779,-0.74707 -1.756057,-1.51972 -2.537843,-2.3265 -3.534574,-3.64757 -5.66028,-7.98857 -5.045,-13.86393 0.571566,-5.45245 1.704089,-10.63314 3.892386,-15.64079 1.278962,-2.92365 2.139887,-6.05207 3.082279,-9.123172 1.965088,-6.398184 3.822718,-12.829256 5.793717,-19.223771 0.976639,-3.1674 3.007863,-5.970412 3.011408,-9.483924 0.0025,-1.162639 0.660161,-2.714046 -0.09808,-3.496445 -0.125132,-0.129139 -0.289309,-0.237695 -0.501898,-0.320523 -1.444301,-0.556941 -2.200109,1.324734 -2.902758,2.459337 -3.888866,6.277521 -8.148533,12.333231 -11.180033,19.139681 -4.004567,8.990352 -6.703042,18.324357 -6.15272,28.339627 0.311767,5.65234 0.603469,11.32782 1.780859,16.89606 0.148807,0.70196 0.596391,1.47097 0.03069,2.21071 -0.686139,0.32054 -1.203393,-0.11827 -1.719457,-0.44116 -6.586113,-4.13013 -12.307807,-9.28402 -17.71062,-14.85957 M -11.36371,-14.20049 c -1.812988,-1.870947 -4.632261,1.032847 -2.816556,2.906599 1.812511,1.870456 4.6313215,-1.033816 2.816557,-2.906599 m 0.934989,-20.344148 c -1.812398,-1.870341 -4.63225,1.032847 -2.816544,2.906599 1.812512,1.870461 4.6317735,-1.033342 2.816544,-2.906599 m 29.106186,24.223487 c -2.236125,-2.307622 -5.391854,-0.255565 -5.653794,2.23327 l 6.336376,-1.25832 c -0.157039,-0.335178 -0.381449,-0.66419 -0.682582,-0.97495 M 4.5939735,-22.917145 c -1.812512,-1.870457 -4.632249,1.032847 -2.816556,2.906598 1.812048,1.869965 4.6317845,-1.033338 2.816556,-2.906598 m 17.8382945,-2.90647 c -1.812396,-1.870344 -4.632258,1.032847 -2.81656,2.906599 1.812513,1.870455 4.631793,-1.033339 2.81656,-2.906599 m -7.509867,-15.503333 c -1.812986,-1.870944 -4.633448,1.034074 -2.817749,2.907823 1.812529,1.870461 4.632516,-1.03504 2.817749,-2.907823 m 40.367915,18.412969 c -3.020858,-3.117438 -7.719842,1.722024 -4.69425,4.844336 3.020857,3.117426 7.719835,-1.722023 4.69425,-4.844336 M 44.962952,-37.446968 c -3.020873,-3.117436 -7.7202,1.721658 -4.694265,4.844331 3.020842,3.117427 7.71985,-1.722022 4.694265,-4.844331 m 18.781751,3.870593 c -1.812748,-1.870706 -4.63285,1.034667 -2.817732,2.907813 1.812755,1.870698 4.634028,-1.033459 2.817732,-2.907813" />
    <path
       inkscape:connector-curvature="0"
       id="path818"
       style="fill:#42daa7;fill-opacity:1;fill-rule:nonzero;stroke:none;stroke-width:0.197048"
       d="m 515.93674,281.59619 c -1.09776,1.19464 -2.49578,1.82716 -4.44937,1.74967 -0.30303,-0.0135 -0.62134,-0.0422 -0.95171,-0.0884 -2.94916,-0.42198 -5.83818,-0.83161 -8.69426,-1.74313 -4.78938,-1.52941 -9.6368,-2.89564 -14.48656,-4.2394 -1.47755,-0.40795 -3.04215,-0.64586 -4.57236,-0.71952 -1.09896,-0.0541 -2.08181,0.27374 -2.72897,0.97811 -0.23965,0.26075 -0.43378,0.57337 -0.56882,0.93858 -0.5521,1.48361 0.54157,2.46692 1.77235,3.21714 1.64275,1.00407 3.42301,1.79464 5.40435,1.92254 3.46974,0.22489 6.89794,0.96678 10.34725,1.44437 2.55077,0.35288 5.11383,0.5626 7.71362,0.31223 0.0899,-0.008 0.18104,-0.016 0.27291,-0.0202 0.91493,-0.0439 1.88629,0.14175 2.89176,1.00652 -3.00149,2.68856 -6.51535,4.53837 -10.56271,5.4606 -9.13017,2.07616 -17.02339,0.40234 -23.98931,-6.28969 -6.38099,-6.1311 -13.48096,-11.64937 -22.29964,-14.88576 -2.34981,-0.86253 -4.43433,-0.98576 -6.74361,0.0127 2.26846,4.40133 5.14217,8.00077 10.09982,10.06584 11.49909,4.78912 15.80331,13.275 16.16447,24.23115 0.35723,10.87569 -3.95161,20.00233 -10.30466,28.52965 -1.81962,2.44122 -3.77211,4.78761 -5.8465,7.04507 -2.13691,2.32551 -4.40305,4.55645 -6.77887,6.69109 -4.1308,3.7139 -9.08612,5.76138 -15.16191,5.18478 -0.3911,-0.96376 0.27322,-1.61302 0.60812,-2.32059 1.03349,-2.1823 1.41888,-4.442 0.9179,-6.83662 -1.32795,-6.35512 -0.65857,-12.61138 0.4262,-18.84331 0.78555,-4.50793 0.5633,-9.08717 0.70972,-13.64164 0.0359,-1.10651 -0.0738,-2.24528 -1.35235,-2.70566 -1.0596,-0.37972 -1.82448,0.0146 -2.37265,0.6112 -0.25923,0.28197 -0.4705,0.61042 -0.63986,0.9228 -2.19591,4.03568 -4.27964,8.14311 -4.85484,12.72584 -0.24693,1.96234 -0.29161,3.96404 -0.25482,5.94861 0.0839,4.47316 -0.53384,8.85831 -1.27462,13.23394 -0.68115,4.01763 -3.02251,7.35882 -5.28458,10.66171 -0.18053,0.26041 -0.37532,0.50949 -0.59017,0.74333 -1.31259,1.42849 -3.26325,2.30843 -5.51899,2.36869 -6.62987,0.17512 -13.11537,-0.70433 -19.34176,-3.09428 -0.6755,-0.25753 -1.21173,-0.83711 -1.80665,-1.27507 -1.04065,-0.0722 -2.41495,-0.10316 -1.32416,-1.48703 0.0695,-0.0865 0.14266,-0.17317 0.21964,-0.25676 0.7917,-0.86165 1.94254,-1.48842 2.93511,-2.20769 4.71271,-3.41409 9.38896,-6.85129 13.2718,-11.07984 0.19525,-0.21268 0.39078,-0.42754 0.58127,-0.64378 3.29534,-3.73223 4.8444,-7.95565 4.92449,-12.84386 0.0971,-5.85455 0.95099,-11.6232 3.43927,-17.03253 0.36228,-0.78788 0.7134,-1.59646 -0.0526,-2.27059 -0.92158,-0.81004 -1.67009,-0.0308 -2.32813,0.43744 -3.37143,2.40185 -6.52589,5.02362 -9.24616,7.984 -1.24096,1.35055 -2.3907,2.76879 -3.42973,4.27218 -4.18784,6.04463 -8.93018,11.70651 -13.47051,17.50926 -0.22626,0.28793 -0.45978,0.56299 -0.70464,0.82943 -1.8868,2.05343 -4.31351,3.51053 -6.66249,5.07087 -1.29421,0.85985 -2.74166,0.4581 -4.08843,0.11688 -7.56685,-1.92111 -14.78519,-4.59714 -20.97346,-9.23805 -4.22618,-3.17127 -8.60083,-6.16901 -11.96975,-10.24343 -1.51445,-1.83156 -3.89406,-3.08538 -6.26389,-4.89255 10.48746,0.62121 19.97489,-1.63497 29.54073,-3.53822 5.68154,-1.12898 10.83055,-3.27669 15.848,-5.79393 5.68615,-2.85439 11.04554,-6.08087 15.82962,-10.07361 0.58126,-0.48662 1.12469,-0.9974 1.62086,-1.53735 0.63287,-0.68871 1.19154,-1.42483 1.66556,-2.2211 0.61078,-1.02249 1.14226,-2.20024 0.0474,-3.25703 -0.988,-0.95536 -2.21621,-0.46555 -3.2485,-0.0935 -5.6634,2.04247 -11.30096,4.13139 -16.87059,6.37896 -12.75552,5.15084 -25.45847,10.44127 -38.9,14.14112 -4.27055,1.17376 -8.58484,2.13266 -13.23589,1.5558 -1.85239,-0.22936 -3.1124,-0.82315 -4.18501,-2.17243 -2.87262,-3.61557 -5.08857,-7.55819 -6.21615,-11.80552 -1.13296,-4.26838 -3.10767,-8.25288 -4.61786,-12.38804 -0.74652,-2.04408 -0.96083,-3.12289 -0.23419,-3.91365 0.4714,-0.51299 1.34173,-0.90549 2.72316,-1.36218 6.17362,-2.03715 12.39141,-2.97152 19.21467,-1.86629 14.20752,2.3008 27.94871,0.32332 41.33863,-3.60963 2.11663,-0.62182 3.85428,-1.74047 5.36991,-3.16033 0.0773,-0.0737 0.15428,-0.14988 0.22714,-0.2292 0.50907,-0.55415 0.8254,-1.22024 0.60583,-1.97422 -0.30399,-1.05577 -1.40382,-0.97993 -2.2485,-1.00298 -2.70093,-0.0692 -5.42308,-0.20778 -8.10168,-0.0181 -7.03495,0.49963 -14.07079,0.99138 -21.09645,1.58527 -11.70456,0.98957 -23.39201,0.27288 -34.89683,-2.76261 -1.83469,-0.4842 -3.80303,-0.84383 -5.18242,-2.28863 l 0.003,-0.006 c -3.58821,-0.64184 -5.69959,-3.10937 -7.62343,-5.57483 -4.25433,-5.45149 -5.29737,-11.4547 -3.74959,-18.13352 4.97239,1.77175 10.09643,2.37361 15.0955,3.54682 12.80038,3.00615 25.81436,3.70748 38.8408,4.19846 6.50375,0.24548 12.73687,-1.23333 19.05241,-2.14583 0.49979,-0.0729 0.96326,-0.29687 1.44781,-0.43945 0.8787,-0.25547 1.77814,-0.57249 2.31073,-1.15208 0.30722,-0.33451 0.49316,-0.75744 0.48046,-1.30404 -0.032,-1.48545 -1.76833,-1.60597 -2.88934,-1.99614 -3.78079,-1.31525 -7.69817,-2.1986 -11.63462,-2.95393 -7.54381,-1.45125 -14.67601,-4.02716 -21.67787,-6.98656 -2.38826,-1.00891 -4.58253,-2.34508 -6.49773,-3.96718 -6.89094,-5.84124 -14.43664,-10.6478 -23.44023,-13.2864 -0.70477,-0.20808 -1.33582,-0.64242 -1.99864,-0.98263 -1.56843,0.51121 -2.0818,-0.3017 -2.15245,-1.54575 -0.1934,-3.44221 0.41644,-6.76261 1.68305,-9.94808 0.82242,-2.06395 1.71852,-4.11252 2.7516,-6.08956 0.8441,-1.61933 0.81254,-2.99533 -0.34452,-4.59572 -2.16382,-2.98846 -3.5704,-6.32099 -5.1286,-9.58387 -1.95424,-4.08726 -2.07238,-8.06157 0.46023,-11.76592 1.87187,-2.73474 1.67455,-4.94427 -1.06052,-7.2813 -2.11208,-1.80737 -3.33196,-4.21293 -4.34309,-6.69686 -0.45707,-1.11838 -0.49487,-2.04657 0.13622,-2.98089 2.4275,-3.59891 5.07708,-7.04892 8.02848,-10.52322 0.40986,0.56179 0.70248,0.81577 0.80143,1.11664 3.03701,9.04244 9.61158,15.61255 17.97468,20.94591 1.9274,1.23013 3.77549,2.57342 5.74952,3.7378 3.91051,2.30722 7.4551,2.94024 11.74444,2.08277 -3.09332,-3.20247 -6.58072,-5.65106 -10.45909,-7.537 -6.69476,-3.25777 -12.23608,-7.64562 -16.96847,-13.042 -2.02084,-2.30316 -2.80025,-5.06888 -4.42212,-7.49327 -0.30053,-0.44552 -0.26767,-0.9192 0.0594,-1.31093 1.31237,-1.57133 2.59715,-3.16627 3.98785,-4.67976 0.0665,-0.0723 0.13527,-0.14504 0.20303,-0.21876 0.62466,-0.67087 1.36347,-0.43422 1.79658,0.3944 0.22495,0.42911 0.49398,0.86088 0.59693,1.31239 1.26985,5.59238 5.85959,8.81828 10.57665,11.85187 4.12111,2.65043 8.81551,4.10454 13.71355,4.91959 1.53315,0.25477 3.07883,0.37661 4.63466,-0.30871 -0.32929,-2.78737 -1.61352,-4.70552 -4.75228,-5.84881 -4.09817,-1.49193 -8.07817,-3.31768 -11.98124,-5.2274 -4.70828,-2.30379 -7.5485,-5.75182 -7.49818,-10.81297 0.0594,-5.72588 -0.0332,-11.46035 -0.0599,-17.15626 0.33947,-0.0921 0.59481,-0.2537 0.77557,-0.197 5.92379,1.85751 12.04269,2.92426 18.10382,4.20295 8.1235,1.71785 13.87523,5.99897 18.08501,12.5842 2.6472,4.1412 4.19811,8.36326 4.56457,13.00965 0.19526,2.47396 0.65303,4.9248 2.3052,7.0508 1.0221,1.31776 1.93061,1.36076 3.0114,0.18456 0.0157,-0.0151 0.0284,-0.0312 0.0425,-0.0471 0.73523,-0.81802 1.1449,-1.8065 1.3259,-2.8474 1.3234,-7.65412 -0.16736,-14.93239 -4.56752,-21.76075 -1.12177,-1.74287 -2.59392,-3.3046 -4.39596,-4.53993 -1.48907,-1.02135 -2.49601,-2.38547 -3.66693,-3.63378 3.57152,-2.86697 16.00365,-3.28272 24.47249,-0.82546 l 2.05881,0.48479 c 2.36272,5.37813 7.56842,8.22876 11.47016,12.16154 4.67153,4.70824 6.33728,10.26641 6.18389,16.34614 -0.11581,4.56586 -0.43424,9.10176 -1.01257,13.63128 -0.66277,5.21181 -0.94688,10.4826 0.54937,15.72425 0.39132,1.37206 0.82175,2.7524 1.74516,3.93614 0.94042,1.20397 2.04185,1.38581 2.8271,0.53124 0.15225,-0.16592 0.29435,-0.371 0.41884,-0.61389 0.42099,-0.82491 0.67947,-1.75826 0.80535,-2.67439 0.86749,-6.26353 1.52969,-12.5422 -0.14756,-18.86607 -1.55874,-5.8773 -2.35042,-11.79615 -2.47761,-17.80616 -0.10437,-4.99933 -0.82453,-9.99209 -2.03239,-15.18376 9.47348,-0.36856 18.22437,0.79176 24.68375,8.09548 4.23562,4.78903 6.63819,10.19533 6.11038,16.36944 -0.48817,5.71357 -1.30673,11.38115 -2.76159,16.92721 -1.75941,6.69746 -2.33726,13.57299 -3.20563,20.40406 -0.3518,2.78612 0.0657,5.61466 0.7992,8.38862 0.18322,0.69219 0.35729,1.39428 1.40001,1.80406 1.07085,-0.66157 1.97406,-1.4326 2.75665,-2.28433 1.96371,-2.13703 3.16214,-4.7801 4.30967,-7.48408 4.08791,-9.63986 3.58687,-19.67093 1.9102,-29.7643 -0.859,-5.16286 -1.10158,-10.27501 -0.56979,-15.41583 0.32395,-3.13154 0.61662,-6.2678 -0.0437,-9.45228 1.44717,-0.72764 2.8916,-0.51699 4.22594,-0.23364 7.98708,1.6904 15.17814,4.78075 21.00378,10.34712 1.44568,1.3846 2.26043,2.89829 2.56163,4.67259 0.25758,1.5087 0.61795,3.05766 0.50309,4.54836 -0.53697,6.98914 -0.96448,14.02616 -3.22349,20.72169 -1.8286,5.42797 -3.80383,10.81575 -6.38501,15.98924 -1.68074,3.36775 -3.13623,6.83613 -3.81193,10.5412 -0.1876,1.03075 -0.34619,2.07946 -0.34101,3.12326 0.008,1.4549 0.39811,2.966 1.98327,3.61139 1.55005,0.63295 2.96854,-0.17731 4.26693,-0.93719 0.35682,-0.20931 0.6528,-0.46304 0.90936,-0.74218 0.54955,-0.59802 0.92588,-1.31466 1.36802,-1.98073 4.53698,-6.80398 8.48998,-13.91177 12.60481,-20.93621 3.57817,-6.10951 7.66811,-11.93198 11.94448,-17.64737 0.31636,-0.42178 0.60253,-0.77491 0.8656,-1.0612 1.48317,-1.61413 2.29142,-1.15485 4.33047,0.38603 7.63261,5.77058 12.8488,12.88272 13.1763,22.0888 0.13593,3.84772 -1.441,7.04868 -3.92164,9.7483 -0.84646,0.92114 -1.79766,1.78345 -2.82094,2.5928 -6.11558,4.83364 -12.04848,9.84395 -18.0374,14.79909 -1.19857,0.99137 -2.29448,2.06171 -3.32583,3.18406 -0.74874,0.81488 -1.46222,1.65684 -2.1576,2.51513 -1.0152,1.25085 -1.55283,2.64392 -1.61358,4.19803 -0.0679,1.68405 0.5885,2.19822 2.3037,1.79265 1.78484,-0.42468 3.18512,-1.39396 4.36917,-2.64075 7.26599,-7.65388 14.56727,-15.28059 21.78509,-22.97152 0.86253,-0.92079 1.7627,-1.81994 2.61698,-2.74958 1.64337,-1.78842 3.11996,-3.69055 3.85978,-6.06708 0.0725,-0.22739 0.17109,-0.41013 0.2963,-0.54609 0.51697,-0.56256 1.43947,-0.32013 2.2626,0.84446 2.25275,3.18985 4.87979,6.20794 6.37694,9.7818 1.77915,4.24507 2.58382,8.65298 2.91954,13.12104 0.0884,1.15613 0.0567,2.3185 -0.53593,3.37722 0.22441,0.75769 0.11976,1.37846 -0.29959,1.83478 -0.24621,0.26776 -0.60129,0.47845 -1.06321,0.62627 -8.54383,2.74696 -14.09226,8.72265 -19.67255,14.71495 -3.92142,4.21093 -8.71354,7.27621 -14.82547,8.56041 -3.20631,0.67159 -6.26716,1.75727 -9.0349,3.97024 3.50622,1.88551 6.86799,2.00781 10.27071,1.24772 5.3659,-1.19994 10.24166,-3.3811 15.03543,-5.79223 5.97792,-3.00489 10.30096,-7.7753 15.60269,-11.49345 2.60542,-1.8275 2.61852,-1.94319 4.67154,0.47409 5.39532,6.35036 6.59422,13.22784 3.73875,20.58682 -0.27044,0.69431 -0.60499,1.26395 -1.02818,1.72454 -0.82555,0.89847 -1.98892,1.38974 -3.66824,1.6102 -6.09977,0.80259 -12.1879,1.4401 -18.39635,1.38055 -3.49326,-0.0325 -6.84417,0.84708 -10.24498,1.39333 -1.20794,0.19338 -2.40745,0.46119 -3.62624,0.59791 -0.1359,0.0168 -3.87926,0.5243 -5.25138,1.12594 -2.08726,4.23052 -1.40566,5.00349 4.19827,5.95976 1.94308,0.33014 3.84356,0.16161 5.75645,-0.0921 7.27368,-0.97145 14.17757,-2.90913 20.77022,-5.74138 2.96156,-1.27324 3.50921,-1.24401 4.53794,1.16455 0.10592,0.24286 0.21594,0.51101 0.3304,0.80604 0.31351,0.78509 0.57686,1.56298 0.79125,2.33482 1.56837,5.64048 0.56684,10.96183 -2.25698,16.0407 -0.26423,0.47882 -0.54641,0.95347 -0.84256,1.42714 -0.27419,0.4371 -0.56686,0.82887 -0.88593,1.17609 m -29.97066,-24.24293 9.1e-4,8.4e-4 -9.1e-4,-8.4e-4 v 0 m -23.67999,6.37975 c -0.44803,0.48748 -0.11593,1.1997 0.76891,1.42042 3.4944,0.87257 7.00945,1.22177 10.18298,-0.0433 0.39962,-0.37227 0.84317,-0.61648 1.11923,-0.91693 0.21219,-0.23105 0.32362,-0.49595 0.24246,-0.87515 -0.14622,-0.66112 -0.7942,-1.01427 -1.38097,-1.10019 -3.61581,-0.52586 -7.09661,0.0123 -10.39772,1.18644 -0.23811,0.0827 -0.41523,0.19825 -0.53499,0.32868 m -26.22929,27.23989 c -0.10545,0.11474 -0.18165,0.25443 -0.22751,0.41754 -0.75081,2.72846 -1.98524,5.4672 0.0598,8.60602 0.4469,-0.34552 0.83609,-0.7042 1.17602,-1.07404 1.73444,-1.88761 2.15813,-4.08403 1.98619,-6.49407 -0.0642,-0.91996 -0.72554,-1.47657 -1.70474,-1.72882 -0.55221,-0.14145 -1.01485,-0.0254 -1.28961,0.27328 m 4.45856,-12.29074 c -0.90502,2.21332 -1.78255,4.43565 -2.71526,6.63737 -1.40734,3.32648 -1.4224,3.32212 2.17417,4.92127 0.0737,0.0333 0.19838,-0.0314 0.4695,-0.0818 0.21921,-3.73915 0.44074,-7.52252 0.66353,-11.30729 -0.19837,-0.0552 -0.39514,-0.1126 -0.59201,-0.16977 m 16.6586,-25.53876 c -0.23298,0.25377 -0.43268,0.53065 -0.57848,0.84422 -0.172,0.36593 -0.33379,0.8867 -0.1298,1.27133 0.19513,0.37496 0.72673,0.59261 1.13675,0.70699 2.39292,0.67879 7.74727,-0.92903 10.42762,-2.85608 0.37605,-0.26967 0.7008,-0.54699 0.95423,-0.82382 0.12487,-0.13608 0.23251,-0.27105 0.324,-0.40626 0.72625,-1.08851 0.62422,-2.19706 -0.32192,-3.49019 -0.54864,-0.75065 -1.35252,-0.8897 -2.96693,-0.51403 -2.13545,0.4961 -4.07344,1.46317 -5.92972,2.95256 -0.41729,0.37079 -0.87609,0.69999 -1.34084,1.02944 -0.57941,0.41306 -1.13882,0.81 -1.57504,1.28477 m -10.69643,4.05203 c -0.54819,0.59663 -0.83194,1.13783 -0.86298,1.50567 -0.0193,0.24148 0.0715,0.3307 0.10497,0.36594 0.91883,0.91431 2.07444,0.81359 3.76054,0.3324 0.6567,-0.18665 1.33886,-0.38058 1.81983,-0.70726 0.11943,-0.0778 0.22928,-0.17203 0.32826,-0.27961 0.67199,-0.7313 0.83382,-2.06736 0.26441,-2.75657 -0.61749,-0.75033 -1.30742,-0.8165 -2.83809,-0.26892 -0.36014,0.12739 -0.71526,0.34008 -0.94971,0.479 l -0.20563,0.12042 c -0.59076,0.40423 -1.06184,0.81831 -1.42117,1.20957 m -0.5989,-15.4404 c -0.75393,0.82053 -1.48542,1.69704 -2.20148,2.63134 -0.43857,0.56962 -0.74751,1.12051 -0.91951,1.63873 -0.12529,0.3726 -0.12031,0.68856 0.017,0.8428 0.13068,0.14978 0.44568,0.22165 0.8618,0.19813 0.66748,-0.0406 1.33603,-0.20095 1.88388,-0.45493 l 1.25213,-0.57535 c 3.10564,-1.42368 6.31914,-2.90222 9.03764,-4.91844 l 0.89868,-0.64396 c 0.29544,-0.21058 0.59165,-0.42296 0.88506,-0.63516 0.49548,-0.35422 0.98891,-0.71241 1.47759,-1.07434 0.1309,-0.0976 0.26187,-0.2194 0.39337,-0.36259 0.0742,-0.0808 0.14873,-0.16847 0.22359,-0.26336 0.53835,-0.69613 0.69613,-1.38977 0.44238,-1.95726 -0.24627,-0.55195 -0.87851,-0.95825 -1.77822,-1.14201 -1.89709,-0.38948 -3.72528,-0.037 -5.59135,1.07255 -2.50086,1.48715 -4.77288,3.34846 -6.8824,5.64421 m -19.49735,25.44345 c -0.67975,0.73972 -1.13119,1.65741 -0.49801,2.51888 0.21141,0.28581 0.62165,0.49237 1.16067,0.58261 1.04204,0.17547 2.29957,-0.11115 3.20195,-0.73541 0.33037,-0.22236 0.59924,-0.40744 0.76233,-0.58426 0.0412,-0.046 0.0772,-0.0905 0.10485,-0.13449 l 0.29055,-0.46822 c 0.76143,-1.20413 1.19821,-1.99272 0.58538,-2.97171 -0.0364,-0.0559 -0.14512,-0.22978 -0.52685,-0.33008 -0.78647,-0.20556 -2.05665,0.0586 -3.2322,0.67588 -0.2117,0.11032 -0.40651,0.24855 -0.53248,0.3379 l -0.10961,0.0753 c -0.37139,0.26098 -0.8237,0.6195 -1.20537,1.03456 m -18.44794,12.07655 c -0.52214,0.56832 -0.94113,1.19414 -1.25423,1.87477 -0.22417,0.48542 -0.27275,0.8664 -0.13607,1.07544 0.15271,0.23062 0.62779,0.40515 1.30558,0.47824 2.85715,0.30775 5.92926,-0.60246 8.25547,-2.27222 0.6048,-0.43462 1.15708,-0.9193 1.64277,-1.44787 0.42976,-0.46763 0.80715,-0.97072 1.11974,-1.50181 0.52385,-0.88619 0.57868,-1.36633 0.22139,-1.90464 -0.30966,-0.46514 -0.83607,-0.9716 -2.16811,-0.76242 -2.25841,0.35565 -4.82939,0.96188 -6.83895,2.7493 l -0.0524,0.049 -0.0625,0.0371 c -0.79455,0.4725 -1.47186,1.01589 -2.03185,1.62521 m 8.214,-22.92347 c -0.30872,0.33578 -0.48523,0.76101 -0.349,1.28905 0.24092,0.92754 0.96793,1.58549 1.99035,1.80568 1.41325,0.30784 3.283,0.45851 4.51153,-0.42517 l 0.32985,-0.27845 0.0537,-0.0483 0.70043,-0.55945 c 0.33031,-0.26113 0.56286,-0.44266 0.77169,-0.64003 0.0954,-0.0889 0.17881,-0.17447 0.25564,-0.25811 0.99744,-1.0855 0.61133,-1.79827 0.47778,-2.04357 -0.21596,-0.40303 -0.64692,-0.80183 -2.2221,-0.72155 -2.29477,0.11498 -4.05407,0.49393 -5.539,1.19747 -0.34686,0.16641 -0.71395,0.38941 -0.98228,0.68125 m -22.68366,6.47337 c -0.2032,0.22101 -0.40313,0.45667 -0.6003,0.70407 -0.61024,0.77143 -1.14148,1.60595 -0.89292,2.47676 0.24582,0.86851 1.17877,1.40674 2.05938,1.82001 2.24842,1.05376 4.71714,1.30713 7.33192,0.75152 2.87066,-0.6104 5.38679,-1.88759 7.40726,-2.91459 l 0.82129,-0.41313 0.0769,-0.0443 c 0.85179,-0.55429 1.74963,-1.14087 2.39169,-1.83947 0.80993,-0.88147 1.2098,-1.94271 0.57931,-3.34388 -0.98609,-2.1919 -3.43163,-2.11563 -5.19438,-2.06092 -3.70381,0.11272 -7.07474,1.21394 -10.20649,2.33214 -0.82056,0.29056 -1.56545,0.67796 -2.25412,1.17382 -0.53443,0.38473 -1.03794,0.8344 -1.51974,1.3587 m 43.20903,-38.72916 c -0.67581,0.73548 -1.16796,1.56622 -1.47187,2.48129 -0.44787,1.35804 -0.21744,2.34765 0.72827,3.11344 1.11885,0.90842 2.32823,1.00863 3.69464,0.30581 l 0.58939,-0.30133 c 1.43455,-0.7327 2.90507,-1.48381 4.18688,-2.40366 0.45611,-0.32649 0.88965,-0.67501 1.28655,-1.05438 l 0.56842,-0.5351 c 0.76951,-0.72395 1.52585,-1.43387 2.20557,-2.17361 1.30347,-1.41857 2.3294,-2.94646 2.64562,-4.89179 0.23861,-1.48514 -0.26207,-2.40438 -1.62781,-2.97547 -1.1552,-0.48425 -2.19261,-0.29741 -2.94919,0.52584 -0.0574,0.0626 -0.11129,0.12745 -0.16611,0.19637 -0.15171,0.19783 -0.31193,0.38411 -0.47859,0.56554 -0.90764,0.98771 -1.99737,1.75326 -3.14712,2.55727 -0.60737,0.42542 -1.23778,0.86695 -1.87189,1.36616 l -0.0271,0.0208 -0.81575,0.57473 c -0.72649,0.51035 -1.57381,1.10438 -2.38543,1.74033 -0.3537,0.27688 -0.67656,0.57532 -0.96445,0.88844 m -25.79956,19.26439 c -0.17589,0.19118 -0.27005,0.36548 -0.28714,0.52404 -0.0333,0.29849 0.19561,0.71142 0.70148,1.26714 0.87797,0.96199 2.65017,1.45437 4.62975,1.28589 1.36887,-0.11819 2.59044,-0.5381 3.4362,-1.14535 0.21689,-0.15476 0.40839,-0.32204 0.57111,-0.49928 0.15629,-0.17004 0.28522,-0.34898 0.38661,-0.53704 0.34998,-0.65224 0.23008,-1.04661 -0.46079,-1.50525 -1.89813,-1.25601 -6.34376,-1.26622 -8.20219,-0.0132 -0.3433,0.22465 -0.60061,0.43299 -0.77515,0.6229 m -19.31959,3.36993 c -0.24621,0.26777 -0.38092,0.54873 -0.39262,0.82986 -0.0251,0.59978 0.49222,1.26829 1.46145,1.88032 0.92063,0.58436 1.79332,0.8393 2.74691,0.80345 2.30813,-0.0877 4.40842,-0.85264 6.44001,-1.59059 l 0.37686,-0.13589 c 0.18908,-0.10354 0.34962,-0.20763 0.4931,-0.31011 0.184,-0.13188 0.33193,-0.26227 0.4501,-0.39158 0.48585,-0.52856 0.47518,-1.03003 0.37609,-1.47374 -0.15431,-0.6699 -0.59041,-0.93494 -1.94869,-1.18603 -3.53347,-0.65109 -6.33332,-0.40703 -8.8163,0.76254 -0.5182,0.24489 -0.91875,0.51975 -1.18698,0.81169 m 29.47989,-36.65299 c -1.64341,1.78839 -2.97282,3.83749 -3.07651,6.43714 -0.0499,1.2262 0.4995,2.33726 1.50267,3.04604 0.95097,0.6706 2.16706,0.86789 3.33658,0.54329 1.13077,-0.31812 2.20299,-0.85288 3.16917,-1.54651 0.63856,-0.4595 1.23123,-0.98808 1.76378,-1.56768 1.84919,-2.01234 2.97549,-4.64551 2.81363,-7.14698 -0.10736,-1.6423 -0.8348,-2.38037 -2.59044,-2.63452 -1.86887,-0.27114 -3.58413,0.22397 -5.72285,1.65098 -0.40886,0.39424 -0.81062,0.79874 -1.19605,1.21821 m -30.65663,22.26011 c -0.69668,0.75814 -0.424,1.71976 1.01682,3.45852 0.80015,0.93907 2.8538,1.28937 4.92247,1.27147 3.47318,-0.0287 6.85445,-0.64324 10.2152,-1.32186 0.56825,-0.1145 1.14404,-0.24015 1.49042,-0.61716 0.11987,-0.13043 0.2126,-0.29113 0.26745,-0.49082 0.25489,-0.93332 -0.38356,-1.61023 -1.16946,-2.0549 -0.75934,-0.42896 -1.62328,-0.77387 -2.48395,-0.9614 -3.81664,-0.83495 -7.66801,-0.66891 -11.50648,-0.55579 -0.60277,0.018 -1.22743,0.29217 -1.76066,0.57149 -0.43133,0.22456 -0.76382,0.45265 -0.99178,0.7006 m -12.79345,-17.47812 c -0.29178,0.31736 -0.54077,0.68691 -0.74321,1.10686 -0.93206,1.93864 -0.59101,3.80395 0.99105,5.39493 l 0.032,0.0331 c 4.20326,3.77757 9.4456,5.10651 16.0292,4.06627 0.80399,-0.12727 2.78317,-0.44067 3.9864,-1.75012 0.49224,-0.53563 0.85557,-1.23814 0.95337,-2.16162 0.31245,-2.8865 -2.43333,-4.38292 -3.75308,-5.10245 -0.49803,-0.27209 -1.01499,-0.4995 -1.52929,-0.68236 -4.22147,-1.4645 -8.59151,-1.98088 -11.92744,-2.26254 -1.36202,-0.11605 -2.52632,0.16419 -3.42079,0.80656 -0.22359,0.16164 -0.43046,0.3462 -0.61933,0.55166 m 30.17935,-25.85999 -0.4237,0.49405 c -2.06374,2.56792 -4.40322,5.47766 -4.54509,9.36819 -0.0141,0.37608 -0.003,0.75464 0.0301,1.13045 0.1768,2.09463 1.39009,3.07318 2.3759,3.52397 2.20868,1.0135 3.80698,-0.57989 4.33141,-1.10283 0.33899,-0.33912 0.69016,-0.70031 1.04304,-1.08436 1.71372,-1.86495 3.46715,-4.26518 4.11667,-7.26493 0.1938,-0.89083 0.25215,-1.80111 0.17072,-2.62785 -0.22497,-2.31057 -1.503,-3.17693 -2.53506,-3.49391 -1.44198,-0.44354 -2.9039,-0.14052 -4.34903,0.89829 l -0.2148,0.15889 m -40.21073,6.08216 c -0.30081,0.32743 -0.46568,0.66493 -0.55665,0.95771 -0.22585,0.72592 -0.21431,1.91488 1.11176,3.45656 l 0.0246,0.0273 c 0.51958,0.54962 1.24915,1.22866 2.28803,1.59199 3.23604,1.1358 7.54433,2.26164 12.29079,0.84431 0.99558,-0.29621 2.15233,-0.64279 2.90756,-1.46469 0.35552,-0.3869 0.62259,-0.88041 0.73941,-1.52329 0.34727,-1.91661 -1.01861,-3.83232 -3.31975,-4.65567 -4.43278,-1.58669 -9.03319,-1.68206 -13.67037,-0.28227 -0.56964,0.1695 -1.00686,0.39209 -1.34775,0.63787 -0.18401,0.13203 -0.33856,0.26915 -0.46708,0.40993 m -40.05848,5.28773 c 4.20894,3.92948 8.61648,6.89442 13.10303,9.74355 3.26884,2.07511 6.92263,3.27816 10.87968,3.59958 1.3023,0.10639 2.57008,0.0774 3.81072,-0.25296 0.80568,-0.21496 1.62324,-0.49321 2.12196,-1.03604 0.20183,-0.21966 0.35041,-0.48265 0.42503,-0.80255 0.31541,-1.35108 -0.90119,-2.13472 -1.94866,-2.83507 -1.27836,-0.85704 -2.795,-1.249 -4.28621,-1.67469 -5.57601,-1.59488 -11.19398,-3.05769 -16.6404,-5.05599 -2.24517,-0.82186 -4.57633,-1.48427 -7.46523,-1.68581 m -12.25142,-30.62718 c 5.5403,7.83287 13.94418,12.35856 22.69661,16.43632 2.24297,1.04472 4.76395,1.08916 7.20843,1.20796 0.52266,0.0246 1.17065,0.13337 1.53526,-0.26347 0.11068,-0.12052 0.19521,-0.29006 0.24304,-0.52411 -10.36645,-5.89643 -21.67016,-10.2451 -31.68353,-16.85672" />
    <g
       style="fill:#18c074;fill-opacity:1"
       id="g8640"
       transform="matrix(-0.12126505,0.05543072,0.05543072,0.12126505,151.79197,-219.69698)">
      <g
         transform="matrix(1.0280603,-0.029792,-0.029792,0.97650285,25.426809,40.631765)"
         style="fill:#18c074;fill-opacity:1"
         clip-path="url(#clipPath8646)"
         id="g8642">
        <path
           inkscape:connector-curvature="0"
           id="path8654"
           style="fill:#18c074;fill-opacity:1;fill-rule:nonzero;stroke:none"
           d="m 1252.8,3687.4 c 23.82,10.12 47.84,20.31 73.23,25.34 13.22,2.63 107.7,0.49 68.87,-27.74 -5.73,-4.17 -13.04,-5.36 -20.05,-6.42 -41.14,-6.25 -85.94,-11.87 -122.05,8.82 z m 13.87,-431.29 c -25.33,0.35 -47.58,15.95 -68.02,30.92 -8.43,6.17 -17.05,12.55 -22.65,21.35 -5.6,8.82 -7.58,20.75 -2.1,29.64 5.72,9.29 17.43,12.65 28.16,14.65 11.28,2.1 23.56,3.38 33.7,-1.99 5.38,-2.85 9.67,-7.34 13.79,-11.82 7.17,-7.8 64.72,-83.42 17.12,-82.75 z m -133.62,326.66 c -0.63,5.77 -0.98,11.72 0.79,17.24 1.77,5.52 6.1,10.57 11.79,11.62 5.28,0.98 10.51,-1.52 15.3,-3.95 15.79,-8 32,-16.33 43.53,-29.76 7.07,-8.24 12.05,-18.05 16.84,-27.8 9.59,-19.49 31.49,-48.45 32.43,-70.76 1.25,-29.38 -28.07,-44.24 -52.95,-33.14 -24.04,10.73 -37.39,36.37 -47.14,60.83 -9.72,24.37 -17.76,49.63 -20.59,75.72 z M 822.273,3252.38 c -9.05,1.54 -19.281,5.76 -21.367,14.71 -1.414,6.07 1.676,12.5 6.313,16.67 4.633,4.18 10.597,6.51 16.48,8.59 14.547,5.16 93.762,32.77 90.766,-3.9 -2.5,-30.53 -71.352,-39.61 -92.192,-36.07 z m -9.914,440.96 c -2.879,6.46 -4.023,14.37 -0.269,20.37 3.703,5.92 11.402,8.4 18.332,7.58 6.933,-0.82 13.223,-4.4 18.953,-8.37 11.25,-7.81 21.195,-17.49 29.32,-28.51 l -0.382,-8.72 c -10.536,-7.68 -24.598,-10.3 -37.192,-6.93 -12.598,3.37 -23.469,12.66 -28.762,24.58 z m 797.661,-271.29 c -1.96,69.24 -21.56,148.1 -83.56,178.98 -49.77,24.78 -113.87,11.03 -160.01,42.02 78.92,12.29 160.46,7.37 237.33,-14.31 -36.28,65.91 -72.65,131.98 -115.81,193.61 -39.2,55.97 -91.93,112.32 -160.15,116.06 -49.67,2.72 -97.24,-24.34 -130.93,-60.94 -7.56,-8.4 -14.47,-16.75 -20.89,-25.11 -0.59,13.13 -1.7,25.89 -3.42,37.87 -7.04,49.24 -30.92,98.49 -73.4,124.38 -58.35,35.55 -133.719,18.96 -197.719,-4.97 -70.477,-26.35 -137.867,-60.21 -205.098,-93.99 75.633,-25.66 145.633,-67.79 203.719,-122.61 -55.586,0.59 -100.633,48.22 -155.68,55.98 -68.586,9.66 -129.398,-44.23 -170.226,-100.19 38.844,12.12 80.984,-3.51 115.762,-24.64 34.781,-21.12 66.531,-48.14 104.734,-62.14 -41.734,0.52 -79.383,25.96 -120.82,31.01 -41.465,5.06 -82.336,-10.64 -121.164,-26.04 -36.836,-54.12 -52.676,-122.15 -43.532,-186.97 52.004,45.77 123.532,84.36 188.231,59.61 -29.754,-21.94 -65.489,-33.9 -98.563,-50.43 -33.07,-16.52 -65.488,-39.94 -78.609,-74.5 -8.047,-21.22 -8.008,-44.57 -6.692,-67.22 2.395,-41.12 8.661,-82.01 18.68,-121.96 19.953,15.5 24.684,43.75 40.629,63.35 10.527,12.94 25.426,21.46 40.266,29.08 63.605,32.68 132.91,54.24 203.828,63.43 -45.848,-33.73 -102.297,-48.95 -153.992,-72.77 -51.696,-23.82 -102.762,-61.59 -116.43,-116.85 -9.004,-36.4 -0.25,-74.82 12.051,-110.25 49.57,59.7 131.523,79.02 207.484,94.85 15.383,3.21 30.996,6.44 46.676,5.41 -21.371,-32.58 -63.188,-43.18 -100.406,-54.72 -52.575,-16.3 -103.039,-39.4 -149.75,-68.53 7.269,-46.22 25.914,-90.6 53.832,-128.14 3.57,-4.81 7.675,-9.78 13.433,-11.42 4.707,-1.34 9.731,-0.22 14.449,1.08 55.043,15.16 101.375,54.38 156.922,67.6 6.493,1.54 14.203,2.41 19.004,-2.22 9.883,-9.51 -4.57,-24.44 -17.019,-30.19 -57.024,-26.33 -114.043,-52.67 -171.063,-79 38.297,-47.98 75.008,-149.6 168.063,-191.51 1.121,-0.89 2.379,-1.55 3.851,-1.86 l 0.078,-0.04 0.008,0.01 c 83.039,-16.79 204.433,34.72 264.003,52.83 -32.08,53.99 -64.16,107.99 -96.245,161.99 -7.008,11.79 -10.465,32.28 3.066,34.52 6.579,1.1 12.454,-3.99 16.918,-8.93 38.301,-42.35 54.281,-100.91 91.061,-144.59 3.14,-3.74 6.66,-7.51 11.29,-9.07 5.68,-1.9 11.87,-0.14 17.54,1.8 44.27,15.13 84.77,41.16 116.93,75.13 -21.99,50.46 -50.51,98.08 -84.61,141.29 -24.14,30.59 -52.6,63.01 -51.77,101.97 13.51,-8.04 24.55,-19.54 35.41,-30.9 53.64,-56.07 110.25,-118.4 117.29,-195.67 30.21,22.23 59.18,48.94 72.37,84.04 20.03,53.28 -0.67,113.34 -29.78,162.24 -29.12,48.91 -67.03,93.41 -85.71,147.18 53.25,-47.73 98.15,-104.75 132.07,-167.71 7.91,-14.68 15.37,-30.14 16.71,-46.77 2.05,-25.18 -10.05,-51.14 -2.38,-75.21 30.89,27.25 59.2,57.4 84.46,89.93 13.91,17.93 27.17,37.15 32.55,59.19 8.76,35.92 -4.69,73.58 -22.59,105.93 -17.91,32.35 -40.58,62.45 -52.69,97.38 67.35,-16.24 104.44,-88.56 121.39,-155.73 44.24,48.25 69.71,113.29 70,178.75 -23.28,34.68 -48.08,70.77 -85.12,90.08 -37.01,19.31 -82.44,19.66 -117.14,42.87 39.42,-10.1 80.89,-5.81 121.52,-8.1 40.62,-2.28 84.21,-13.26 109.36,-45.25" />
      </g>
    </g>
    <g
       id="g8958"
       transform="matrix(0.08618098,0.11157539,0.10783795,-0.0817853,-321.34654,-152.41294)">
      <g
         style="fill:#1a8561;fill-opacity:1"
         clip-path="url(#clipPath8964)"
         id="g8960">
        <path
           inkscape:connector-curvature="0"
           id="path8972"
           style="fill:#1a8561;fill-opacity:1;fill-rule:nonzero;stroke:none"
           d="m 4104.75,3891.94 c 31.04,23.55 69.22,35.82 107.46,43.28 98.91,19.32 209.62,5.85 285.68,-60.25 73.28,-63.68 102.44,-163.66 119.94,-259.14 -105.46,90.9 -269.12,106.72 -390.04,37.7 130.66,-46.12 263.3,-86.62 397.43,-121.37 10.84,-2.8 22.52,-6.11 29.31,-15.01 3.96,-5.19 5.73,-11.67 7.42,-17.98 22.6,-84.43 42.79,-182.84 -10.02,-252.5 -14.83,46.41 -59.17,76.13 -101.5,100.23 -109.82,62.52 -226.76,112.51 -347.83,148.71 -6.91,-29.72 28.44,-50.06 57.04,-60.68 76.18,-28.3 149.83,-63.4 219.78,-104.76 64.2,-37.97 131.71,-92.3 134.08,-166.85 1.34,-42.54 -19.46,-82.27 -39.68,-119.72 -15.57,-28.81 -31.13,-57.63 -46.7,-86.45 -60.61,77.88 -121.21,155.77 -181.82,233.65 -30.51,39.21 -61.36,78.78 -99.83,110.21 -38.48,31.43 -85.79,54.46 -135.46,55.03 -10.99,0.13 -24.38,-2.59 -27.81,-13.02 -3.09,-9.35 3.91,-18.75 10.43,-26.13 90.95,-103.09 178.87,-208.85 263.6,-317.12 29.88,-38.19 60.73,-80.4 61.46,-128.89 1.13,-75.25 -68.17,-130.04 -130.49,-172.21 -46.5,96.8 -100.04,190.22 -160.06,279.26 -27.94,41.45 -58.6,83.17 -101.91,108.14 2.14,-53.74 23.91,-104.41 38.52,-156.17 24.59,-87.08 29.05,-179.76 12.95,-268.8 -62.5,42.18 -148.61,46.38 -214.91,10.46 0.15,19.99 -10.09,39.78 -26.51,51.18 -14.78,10.28 -34.73,14.77 -44,30.21 -9.64,16.05 -3.38,36.51 2.87,54.15 19.54,55.13 36.84,111.05 51.86,167.58 4.47,16.84 6.54,39.22 -8.83,47.43 -15.05,8.04 -32.32,-5.4 -43.65,-18.15 -24.78,-27.84 -47.43,-57.57 -67.68,-88.85 -10.64,-16.41 -20.83,-33.83 -23.66,-53.18 -2.84,-19.35 7.5,-31.47 19.52,-52.06 -25.09,18.66 -47.97,39.92 -69.66,62.38 -9.4,9.74 -18.15,20 -27.82,29.47 -11.95,11.72 -23.14,23.39 -26.02,40.63 -2.34,14.05 1.32,28.14 6.21,41.24 4.97,13.29 9.99,26.6 15.18,39.82 11.48,29.28 24.62,58.16 42.01,84.45 16.93,25.59 38.13,48.52 64.25,64.89 43.93,27.54 104.2,40.05 124.27,87.86 -21.86,7.67 -45.9,-0.36 -67.05,-9.79 -121.04,-53.97 -218.84,-157.95 -265.3,-282.06 -20.08,54.39 -40.17,108.78 -60.25,163.17 -3.52,9.53 -7.06,19.16 -8.27,29.25 -2.28,18.94 3.86,37.92 11.87,55.24 53.96,116.53 184.09,173.38 302.25,223.7 29.7,12.64 63.93,31.84 65.29,64.09 -160.74,-20.69 -311.36,-110.73 -405.67,-242.53 16.1,30.18 10.75,67.4 -0.75,99.61 -11.51,32.21 -28.72,62.52 -36,95.95 -2.05,9.43 -3.25,19.44 -0.12,28.58 4.07,11.86 14.63,20.12 24.88,27.35 74.51,52.66 160.49,88.97 250.18,105.68 40.42,7.53 91.44,20.17 97.64,60.82 -125.46,-1.72 -250.72,-17.19 -372.83,-46.06 91.93,31.54 106.06,164.98 190.04,213.93 32.14,18.74 74.36,25.07 94.57,56.32 6.32,9.79 9.75,21.16 15.45,31.33 24.57,43.78 83.29,53.94 133.34,49.97 42.67,-3.38 89.09,-16.34 112.13,-52.41 21.91,-34.26 16.22,-78.32 16.89,-118.98 0.41,-25.46 5.11,-62.14 24.72,-80.92 19.91,-19.06 38.82,-6.56 47.9,15.54 22.32,54.35 33.86,105.74 83.71,143.55" />
      </g>
    </g>
  </g>
</svg>
