<svg class="histogram" width="1000" height="280" viewBox="-0 -240 1000 280" xmlns="http://www.w3.org/2000/svg">
  <style type="text/css">
    @import url(&#039;https://fonts.googleapis.com/css?family=Ubuntu|Ubuntu+Mono&amp;display=swap&#039;);

    svg text {
    font-family: &#039;Ubuntu&#039;, monospace;
    }
    svg.histogram .bar {
    fill: #B5838D;
    }
    svg.histogram .axe {
    stroke: #6D6875;
    stroke-width: 0.6;
    }

    svg.histogram .legend {
    font-size: 16px;
    fill: #6D6875;
    }
    svg.histogram .percent {
    fill: white;
    }
    svg.histogram .label {
    fill: white;
    line-height: 14px;
    font-size: 14px;
    letter-spacing: 0.1em;
    }
    svg.histogram .label-box {
    fill: #6D6875;
    }
  </style>
  <line class="axe" x1="-0%" x2="100%" y1="0" y2="0" />
  <g>
    <rect class="bar" x="18.75" y="-114.41441441441" width="45.833333333333" height="114.41441441441" />
    <path  class="label-box" d="M41.666666666667 -119.41441441441 L36.666666666667 -124.41441441441 L8.1666666666667 -124.41441441441 L8.1666666666667 -153.41441441441 L75.166666666667 -153.41441441441 L75.166666666667 -124.41441441441 L46.666666666667 -124.41441441441 Z"/>
    <text class="label" x="41.666666666667" y="-134.41441441441" text-anchor="middle">127€</text>
  </g>
  <text class="legend" x="41.666666666667" y="20" text-anchor="middle">JANV.</text>
  <g>
    <rect class="bar" x="102.08333333333" y="-102.7027027027" width="45.833333333333" height="102.7027027027" />
    <path  class="label-box" d="M125 -107.7027027027 L120 -112.7027027027 L91.5 -112.7027027027 L91.5 -141.7027027027 L158.5 -141.7027027027 L158.5 -112.7027027027 L130 -112.7027027027 Z" />
    <text class="label" x="125" y="-122.7027027027" text-anchor="middle">114€</text>
  </g>
  <text class="legend" x="125" y="20" text-anchor="middle">FÉVR.</text>
  <g>
    <rect class="bar" x="185.41666666667" y="-88.288288288288" width="45.833333333333" height="88.288288288288" />
    <path  class="label-box" d="M208.33333333333 -93.288288288288 L203.33333333333 -98.288288288288 L179.08333333333 -98.288288288288 L179.08333333333 -127.28828828829 L237.58333333333 -127.28828828829 L237.58333333333 -98.288288288288 L213.33333333333 -98.288288288288 Z" />
    <text class="label" x="208.33333333333" y="-108.28828828829" text-anchor="middle">98€</text>
  </g>
  <text class="legend" x="208.33333333333" y="20" text-anchor="middle">MARS</text>
  <g>
    <rect class="bar" x="268.75" y="-100.9009009009" width="45.833333333333" height="100.9009009009" />
    <path  class="label-box" d="M291.66666666667 -105.9009009009 L286.66666666667 -110.9009009009 L258.16666666667 -110.9009009009 L258.16666666667 -139.9009009009 L325.16666666667 -139.9009009009 L325.16666666667 -110.9009009009 L296.66666666667 -110.9009009009 Z" />
    <text class="label" x="291.66666666667" y="-120.9009009009" text-anchor="middle">112€</text>
  </g>
  <text class="legend" x="291.66666666667" y="20" text-anchor="middle">AVR.</text>
  <g>
    <rect class="bar" x="352.08333333333" y="-121.62162162162" width="45.833333333333" height="121.62162162162" />
    <path  class="label-box" d="M375 -126.62162162162 L370 -131.62162162162 L341.5 -131.62162162162 L341.5 -160.62162162162 L408.5 -160.62162162162 L408.5 -131.62162162162 L380 -131.62162162162 Z" />
    <text class="label" x="375" y="-141.62162162162" text-anchor="middle">135€</text>
  </g>
  <text class="legend" x="375" y="20" text-anchor="middle">MAI</text>
  <g>
    <rect class="bar" x="435.41666666667" y="-140.54054054054" width="45.833333333333" height="140.54054054054" />
    <path  class="label-box" d="M458.33333333333 -145.54054054054 L453.33333333333 -150.54054054054 L424.83333333333 -150.54054054054 L424.83333333333 -179.54054054054 L491.83333333333 -179.54054054054 L491.83333333333 -150.54054054054 L463.33333333333 -150.54054054054 Z" />
    <text class="label" x="458.33333333333" y="-160.54054054054" text-anchor="middle">156€</text>
  </g>
  <text class="legend" x="458.33333333333" y="20" text-anchor="middle">JUIN</text>
  <g>
    <rect class="bar" x="518.75" y="-200" width="45.833333333333" height="200" />
    <path  class="label-box" d="M541.66666666667 -205 L536.66666666667 -210 L508.16666666667 -210 L508.16666666667 -239 L575.16666666667 -239 L575.16666666667 -210 L546.66666666667 -210 Z" />
    <text class="label" x="541.66666666667" y="-220" text-anchor="middle">222€</text>
  </g>
  <text class="legend" x="541.66666666667" y="20" text-anchor="middle">JUIL.</text>
  <g>
    <rect class="bar" x="602.08333333333" y="-178.37837837838" width="45.833333333333" height="178.37837837838" />
    <path  class="label-box" d="M625 -183.37837837838 L620 -188.37837837838 L591.5 -188.37837837838 L591.5 -217.37837837838 L658.5 -217.37837837838 L658.5 -188.37837837838 L630 -188.37837837838 Z" />
    <text class="label" x="625" y="-198.37837837838" text-anchor="middle">198€</text>
  </g>
  <text class="legend" x="625" y="20" text-anchor="middle">AOÛT</text>
  <g>
    <rect class="bar" x="685.41666666667" y="-104.5045045045" width="45.833333333333" height="104.5045045045" />
    <path  class="label-box" d="M708.33333333333 -109.5045045045 L703.33333333333 -114.5045045045 L674.83333333333 -114.5045045045 L674.83333333333 -143.5045045045 L741.83333333333 -143.5045045045 L741.83333333333 -114.5045045045 L713.33333333333 -114.5045045045 Z" />
    <text class="label" x="708.33333333333" y="-124.5045045045" text-anchor="middle">116€</text>
  </g>
  <text class="legend" x="708.33333333333" y="20" text-anchor="middle">SEPT.</text>

  <g>
    <rect class="bar" x="768.75" y="-86.486486486486" width="45.833333333333" height="86.486486486486" />

    <path  class="label-box" d="M791.66666666667 -91.486486486486 L786.66666666667 -96.486486486486 L762.41666666667 -96.486486486486 L762.41666666667 -125.48648648649 L820.91666666667 -125.48648648649 L820.91666666667 -96.486486486486 L796.66666666667 -96.486486486486 Z" />
    <text class="label" x="791.66666666667" y="-106.48648648649" text-anchor="middle">96€</text>

  </g>
  <text class="legend" x="791.66666666667" y="20" text-anchor="middle">OCT.</text>

  <g>
    <rect class="bar" x="852.08333333333" y="-82.882882882883" width="45.833333333333" height="82.882882882883" />

    <path  class="label-box" d="M875 -87.882882882883 L870 -92.882882882883 L845.75 -92.882882882883 L845.75 -121.88288288288 L904.25 -121.88288288288 L904.25 -92.882882882883 L880 -92.882882882883 Z" />
    <text class="label" x="875" y="-102.88288288288" text-anchor="middle">92€</text>

  </g>
  <text class="legend" x="875" y="20" text-anchor="middle">NOV.</text>

  <g>
    <rect class="bar" x="935.41666666667" y="-97.297297297297" width="45.833333333333" height="97.297297297297" />
    <path  class="label-box" d="M958.33333333333 -102.2972972973 L953.33333333333 -107.2972972973 L924.83333333333 -107.2972972973 L924.83333333333 -136.2972972973 L991.83333333333 -136.2972972973 L991.83333333333 -107.2972972973 L963.33333333333 -107.2972972973 Z" />
    <text class="label" x="958.33333333333" y="-117.2972972973" text-anchor="middle">108€</text>
  </g>
  <text class="legend" x="958.33333333333" y="20" text-anchor="middle">DÉC.</text>
</svg>
